<?xml version="1.0" standalone="no"?>
<!DOCTYPE svg PUBLIC "-//W3C//DTD SVG 1.1//EN" "http://www.w3.org/Graphics/SVG/1.1/DTD/svg11.dtd">
<svg version="1.1" xmlns="http://www.w3.org/2000/svg" viewBox="0 0 1354.9814585908534 390.8281829419084" width="1354.9814585908534" height="390.8281829419084"><!-- svg-source:excalidraw --><metadata></metadata><defs><style class="style-fonts">
      </style></defs><g transform="translate(103.39376459277582 154.21096003296407) rotate(0 15.794533717896002 46.0101634390885)" stroke="none"><path fill="#d3d3d3" d="M 2.38,-1.10 Q 2.38,-1.10 6.22,3.35 10.07,7.80 13.49,13.67 16.90,19.54 20.41,26.60 23.93,33.66 27.43,42.81 30.94,51.95 32.66,59.73 34.38,67.51 33.07,74.95 31.76,82.38 30.92,87.28 30.09,92.17 29.99,92.59 29.90,93.00 29.68,93.36 29.46,93.73 29.13,94.00 28.81,94.27 28.41,94.43 28.01,94.58 27.59,94.60 27.17,94.62 26.76,94.51 26.35,94.39 26.00,94.15 25.65,93.91 25.39,93.57 25.14,93.23 25.00,92.83 24.87,92.43 24.87,92.00 24.87,91.58 25.01,91.17 25.15,90.77 25.41,90.44 25.67,90.10 26.02,89.86 26.37,89.63 26.78,89.51 27.19,89.40 27.62,89.43 28.04,89.45 28.44,89.61 28.83,89.77 29.15,90.05 29.48,90.33 29.69,90.69 29.91,91.06 30.00,91.47 30.09,91.89 30.04,92.31 29.99,92.73 29.81,93.12 29.63,93.50 29.34,93.81 29.04,94.12 28.66,94.31 28.29,94.51 27.87,94.58 27.45,94.64 27.03,94.57 26.61,94.50 26.24,94.30 25.86,94.10 25.57,93.79 25.28,93.48 25.10,93.09 24.93,92.70 24.89,92.28 24.84,91.86 24.84,91.86 24.84,91.86 24.59,86.90 24.35,81.94 23.83,76.04 23.32,70.14 21.34,63.27 19.36,56.40 16.02,47.79 12.68,39.18 9.37,32.34 6.07,25.51 2.73,19.11 -0.59,12.72 -1.48,6.91 -2.38,1.10 -2.48,0.79 -2.57,0.49 -2.60,0.18 -2.62,-0.13 -2.56,-0.44 -2.51,-0.75 -2.38,-1.04 -2.26,-1.33 -2.06,-1.58 -1.87,-1.83 -1.62,-2.03 -1.38,-2.23 -1.09,-2.36 -0.80,-2.50 -0.49,-2.56 -0.18,-2.62 0.13,-2.60 0.44,-2.58 0.75,-2.49 1.05,-2.40 1.32,-2.24 1.60,-2.08 1.82,-1.86 2.05,-1.63 2.21,-1.36 2.38,-1.10 2.38,-1.10 L 2.38,-1.10 Z"></path></g><g transform="translate(60.81719544018688 266.8328526301357) rotate(0 52.87735201208625 -113.30861145447125)" stroke="none"><path fill="#d3d3d3" d="M -0.20,2.61 Q -0.20,2.61 -5.42,3.30 -10.65,3.99 -14.58,3.21 -18.52,2.42 -24.42,-0.72 -30.33,-3.86 -35.17,-8.79 -40.02,-13.72 -43.53,-20.26 -47.05,-26.80 -49.39,-35.47 -51.73,-44.14 -53.50,-54.54 -55.28,-64.94 -56.10,-75.08 -56.92,-85.22 -56.55,-100.04 -56.18,-114.87 -54.38,-128.87 -52.59,-142.87 -49.40,-155.44 -46.20,-168.00 -42.39,-178.28 -38.58,-188.55 -33.16,-197.71 -27.74,-206.87 -21.25,-214.57 -14.75,-222.26 -7.18,-228.23 0.39,-234.21 9.29,-237.10 18.19,-239.99 27.61,-239.83 37.04,-239.66 48.85,-232.30 60.67,-224.93 70.46,-213.45 80.26,-201.97 86.93,-188.71 93.61,-175.45 95.77,-161.48 97.93,-147.50 93.51,-128.88 89.09,-110.26 81.85,-95.10 74.61,-79.95 66.97,-69.30 59.32,-58.65 52.96,-52.64 46.61,-46.63 40.32,-43.31 34.03,-40.00 26.80,-41.29 19.56,-42.58 15.42,-47.42 11.28,-52.27 10.99,-58.73 10.70,-65.20 13.61,-71.32 16.51,-77.44 22.75,-82.78 28.99,-88.13 34.50,-90.83 40.01,-93.52 45.91,-93.55 51.82,-93.58 57.31,-91.14 62.80,-88.71 67.91,-83.59 73.01,-78.47 78.06,-69.63 83.12,-60.78 87.12,-52.84 91.12,-44.89 94.78,-37.64 98.45,-30.39 102.97,-23.76 107.49,-17.13 111.57,-12.57 115.65,-8.00 119.66,-5.25 123.67,-2.51 127.18,-1.09 130.70,0.32 133.50,0.17 136.29,0.03 138.38,-0.95 140.46,-1.93 144.22,-4.67 147.97,-7.40 151.29,-10.07 154.61,-12.74 154.94,-13.00 155.28,-13.27 155.68,-13.42 156.07,-13.56 156.50,-13.57 156.92,-13.58 157.33,-13.46 157.74,-13.33 158.08,-13.09 158.43,-12.84 158.67,-12.49 158.92,-12.15 159.05,-11.74 159.17,-11.33 159.16,-10.91 159.15,-10.49 159.00,-10.09 158.85,-9.69 158.59,-9.36 158.32,-9.03 157.96,-8.80 157.60,-8.57 157.19,-8.47 156.78,-8.36 156.35,-8.40 155.93,-8.43 155.54,-8.60 155.15,-8.77 154.83,-9.05 154.52,-9.34 154.31,-9.71 154.10,-10.08 154.02,-10.50 153.94,-10.91 154.00,-11.33 154.06,-11.76 154.25,-12.14 154.44,-12.52 154.74,-12.82 155.04,-13.12 155.42,-13.31 155.80,-13.49 156.22,-13.55 156.64,-13.61 157.06,-13.53 157.48,-13.45 157.84,-13.24 158.21,-13.03 158.50,-12.71 158.78,-12.39 158.95,-12.00 159.12,-11.61 159.15,-11.19 159.18,-10.77 159.08,-10.35 158.98,-9.94 158.75,-9.58 158.52,-9.23 158.52,-9.23 158.52,-9.23 156.22,-5.64 153.92,-2.06 150.08,3.66 146.23,9.38 141.58,11.58 136.92,13.78 131.30,13.69 125.67,13.59 120.52,11.42 115.38,9.25 110.14,5.40 104.91,1.55 100.25,-3.80 95.60,-9.17 90.71,-16.62 85.83,-24.08 82.23,-31.38 78.63,-38.67 74.83,-46.39 71.03,-54.10 67.02,-61.67 63.01,-69.23 59.79,-72.97 56.57,-76.72 53.63,-78.43 50.69,-80.14 47.90,-80.63 45.11,-81.11 41.31,-79.30 37.51,-77.50 33.00,-74.11 28.48,-70.73 26.53,-67.45 24.58,-64.17 24.75,-59.82 24.93,-55.46 27.36,-54.33 29.79,-53.19 33.23,-55.32 36.66,-57.45 42.05,-62.38 47.44,-67.32 54.41,-76.85 61.38,-86.39 68.11,-100.14 74.84,-113.90 79.11,-129.86 83.38,-145.82 81.84,-157.45 80.30,-169.09 74.56,-180.80 68.81,-192.50 60.53,-202.60 52.25,-212.69 43.83,-218.92 35.42,-225.15 28.83,-225.40 22.24,-225.65 15.76,-223.93 9.28,-222.21 2.96,-217.34 -3.35,-212.46 -9.11,-205.79 -14.87,-199.11 -19.70,-191.18 -24.54,-183.25 -28.12,-173.75 -31.71,-164.25 -34.77,-152.59 -37.84,-140.92 -39.62,-127.64 -41.41,-114.36 -42.01,-100.30 -42.62,-86.23 -42.04,-76.71 -41.46,-67.19 -39.93,-57.35 -38.40,-47.51 -36.67,-40.14 -34.95,-32.76 -32.61,-27.58 -30.27,-22.39 -26.94,-18.31 -23.60,-14.22 -19.53,-11.03 -15.47,-7.83 -12.67,-6.70 -9.87,-5.57 -4.83,-4.09 0.20,-2.61 0.51,-2.55 0.82,-2.49 1.10,-2.35 1.39,-2.22 1.64,-2.02 1.88,-1.82 2.07,-1.57 2.26,-1.32 2.39,-1.03 2.52,-0.74 2.57,-0.42 2.62,-0.11 2.59,0.20 2.57,0.51 2.47,0.81 2.37,1.11 2.20,1.38 2.04,1.65 1.81,1.87 1.58,2.09 1.31,2.25 1.03,2.41 0.73,2.50 0.43,2.59 0.11,2.60 -0.20,2.61 -0.20,2.61 L -0.20,2.61 Z"></path></g><g transform="translate(220.13597033374572 218.76253261914826) rotate(0 37.08281829419025 6.867188572997293)" stroke="none"><path fill="#d3d3d3" d="M -2.56,0.56 Q -2.56,0.56 -4.33,-2.76 -6.11,-6.10 -7.00,-8.25 -7.88,-10.40 -5.34,-10.22 -2.80,-10.03 -3.16,-7.21 -3.52,-4.38 -3.68,-0.91 -3.85,2.55 -3.57,6.59 -3.29,10.63 -1.01,15.43 1.27,20.23 3.71,24.24 6.15,28.24 8.91,30.43 11.68,32.63 14.40,33.26 17.11,33.89 19.61,34.06 22.10,34.23 24.76,31.42 27.41,28.61 29.32,24.98 31.22,21.36 32.04,16.85 32.86,12.34 32.54,6.46 32.23,0.59 30.99,-6.15 29.75,-12.90 28.85,-17.00 27.94,-21.10 32.83,-22.95 37.71,-24.80 39.12,-18.55 40.54,-12.30 42.53,-6.37 44.52,-0.43 46.90,5.13 49.28,10.70 52.40,15.40 55.52,20.10 59.03,23.23 62.54,26.37 66.21,27.99 69.88,29.62 73.46,28.74 77.04,27.86 80.64,27.12 84.25,26.37 84.67,26.29 85.09,26.21 85.51,26.27 85.93,26.33 86.31,26.52 86.69,26.71 86.99,27.01 87.29,27.31 87.48,27.70 87.66,28.08 87.72,28.50 87.77,28.92 87.69,29.34 87.61,29.75 87.40,30.12 87.19,30.49 86.87,30.77 86.55,31.06 86.16,31.22 85.77,31.39 85.35,31.42 84.92,31.45 84.51,31.35 84.10,31.25 83.74,31.01 83.38,30.78 83.12,30.45 82.86,30.12 82.71,29.72 82.57,29.32 82.56,28.90 82.55,28.47 82.67,28.06 82.80,27.66 83.05,27.32 83.30,26.97 83.65,26.72 83.99,26.48 84.40,26.36 84.81,26.23 85.23,26.25 85.66,26.26 86.05,26.41 86.45,26.56 86.78,26.82 87.11,27.09 87.34,27.45 87.57,27.81 87.67,28.22 87.77,28.64 87.73,29.06 87.69,29.48 87.52,29.87 87.35,30.26 87.07,30.58 86.78,30.89 86.41,31.10 86.04,31.31 86.04,31.31 86.04,31.31 82.79,33.04 79.54,34.78 73.84,37.27 68.13,39.75 61.11,38.14 54.09,36.52 49.18,32.04 44.26,27.56 40.56,21.76 36.85,15.96 34.32,9.84 31.79,3.71 29.67,-2.98 27.55,-9.68 26.42,-16.12 25.29,-22.57 25.88,-25.01 26.46,-27.46 30.48,-29.40 34.49,-31.35 37.64,-27.69 40.79,-24.04 41.79,-19.66 42.80,-15.28 44.19,-7.66 45.58,-0.03 45.87,7.47 46.16,14.98 44.70,21.52 43.23,28.06 39.76,33.71 36.28,39.36 30.01,43.52 23.73,47.69 18.21,47.53 12.69,47.37 7.71,45.38 2.72,43.38 -1.47,39.41 -5.67,35.43 -8.49,30.47 -11.31,25.52 -13.96,18.54 -16.60,11.57 -16.79,6.47 -16.97,1.37 -16.35,-3.63 -15.74,-8.65 -14.17,-12.17 -12.59,-15.69 -10.25,-17.17 -7.91,-18.66 -3.34,-17.45 1.23,-16.24 2.09,-12.17 2.95,-8.11 2.75,-4.34 2.56,-0.56 2.59,-0.25 2.62,0.06 2.58,0.37 2.53,0.68 2.41,0.98 2.29,1.27 2.11,1.53 1.92,1.78 1.68,1.99 1.44,2.19 1.15,2.33 0.87,2.47 0.56,2.54 0.25,2.61 -0.06,2.60 -0.37,2.59 -0.68,2.51 -0.98,2.43 -1.26,2.28 -1.54,2.12 -1.77,1.91 -2.00,1.69 -2.17,1.43 -2.35,1.16 -2.45,0.86 -2.56,0.56 -2.56,0.56 L -2.56,0.56 Z"></path></g><g transform="translate(305.2891086389236 189.92034061255436) rotate(0 8.927345144897572 41.88985029528976)" stroke="none"><path fill="#d3d3d3" d="M -1.68,2.01 Q -1.68,2.01 -4.82,1.26 -7.96,0.50 -10.93,1.34 -13.90,2.17 -15.86,3.40 -17.82,4.63 -19.59,6.13 -21.36,7.63 -21.54,9.82 -21.71,12.01 -19.49,13.67 -17.27,15.33 -13.03,17.08 -8.78,18.83 -2.26,20.90 4.24,22.96 11.27,24.64 18.31,26.33 25.07,28.85 31.83,31.38 38.10,37.30 44.38,43.22 46.49,50.62 48.60,58.01 46.23,65.73 43.87,73.45 38.23,79.50 32.59,85.56 25.14,89.46 17.69,93.36 6.80,93.01 -4.08,92.67 -11.33,86.26 -18.57,79.86 -21.84,73.16 -25.11,66.45 -27.42,62.05 -29.72,57.65 -29.88,57.25 -30.03,56.86 -30.05,56.43 -30.07,56.01 -29.96,55.60 -29.84,55.19 -29.60,54.84 -29.36,54.49 -29.02,54.23 -28.68,53.98 -28.28,53.85 -27.87,53.71 -27.45,53.71 -27.02,53.72 -26.62,53.85 -26.22,53.99 -25.88,54.25 -25.55,54.51 -25.31,54.86 -25.07,55.22 -24.96,55.63 -24.85,56.04 -24.88,56.46 -24.90,56.88 -25.06,57.28 -25.22,57.67 -25.50,57.99 -25.77,58.32 -26.14,58.53 -26.50,58.75 -26.92,58.84 -27.34,58.93 -27.76,58.88 -28.18,58.83 -28.56,58.65 -28.95,58.47 -29.26,58.18 -29.56,57.88 -29.76,57.51 -29.96,57.13 -30.02,56.71 -30.09,56.29 -30.02,55.87 -29.95,55.45 -29.75,55.08 -29.55,54.70 -29.24,54.41 -28.93,54.12 -28.54,53.95 -28.15,53.77 -27.73,53.73 -27.31,53.68 -26.89,53.78 -26.48,53.87 -26.12,54.09 -25.75,54.31 -25.48,54.64 -25.21,54.96 -25.21,54.96 -25.21,54.96 -22.44,59.09 -19.67,63.22 -16.08,68.05 -12.49,72.89 -7.31,76.91 -2.13,80.94 5.06,80.98 12.26,81.01 17.65,78.38 23.03,75.74 27.15,72.00 31.27,68.25 33.29,64.06 35.31,59.87 34.72,55.96 34.14,52.05 30.35,48.10 26.57,44.16 20.81,42.05 15.05,39.93 7.49,38.13 -0.06,36.33 -7.44,33.92 -14.82,31.51 -20.96,28.30 -27.11,25.08 -29.74,21.99 -32.37,18.90 -33.54,14.99 -34.71,11.08 -33.95,7.47 -33.18,3.86 -31.29,0.95 -29.39,-1.96 -26.48,-4.05 -23.57,-6.14 -20.10,-7.79 -16.62,-9.44 -12.86,-10.00 -9.09,-10.55 -5.30,-9.48 -1.51,-8.40 0.08,-5.21 1.68,-2.01 1.89,-1.78 2.11,-1.55 2.27,-1.28 2.42,-1.00 2.51,-0.70 2.59,-0.39 2.60,-0.07 2.61,0.23 2.54,0.54 2.48,0.85 2.34,1.14 2.20,1.42 2.00,1.66 1.80,1.91 1.54,2.10 1.29,2.28 0.99,2.40 0.70,2.53 0.39,2.57 0.07,2.62 -0.23,2.59 -0.55,2.56 -0.85,2.46 -1.14,2.36 -1.41,2.18 -1.68,2.01 -1.68,2.01 L -1.68,2.01 Z"></path></g><g transform="translate(298.4219200659254 74.5515725861842) rotate(0 32.27578629309164 77.59923087488096)" stroke="none"><path fill="#d3d3d3" d="M -2.52,-0.72 Q -2.52,-0.72 -1.19,-5.54 0.13,-10.36 3.44,-9.77 6.75,-9.17 9.42,-4.53 12.10,0.10 16.16,15.52 20.22,30.94 25.00,46.68 29.77,62.41 34.93,77.74 40.10,93.08 45.35,106.60 50.61,120.13 54.57,130.76 58.53,141.39 60.87,147.59 63.21,153.79 65.03,158.66 66.84,163.53 66.98,163.93 67.13,164.33 67.14,164.75 67.15,165.18 67.02,165.58 66.89,165.99 66.64,166.33 66.39,166.67 66.05,166.92 65.70,167.17 65.29,167.29 64.89,167.41 64.46,167.40 64.04,167.38 63.64,167.24 63.24,167.09 62.91,166.82 62.58,166.55 62.36,166.19 62.13,165.83 62.03,165.42 61.93,165.01 61.96,164.58 62.00,164.16 62.17,163.77 62.34,163.38 62.63,163.07 62.91,162.75 63.28,162.54 63.65,162.34 64.07,162.26 64.49,162.18 64.91,162.24 65.33,162.30 65.71,162.49 66.09,162.68 66.39,162.98 66.69,163.29 66.87,163.67 67.06,164.05 67.12,164.47 67.17,164.89 67.09,165.31 67.01,165.73 66.80,166.10 66.59,166.46 66.27,166.75 65.95,167.03 65.56,167.19 65.17,167.36 64.74,167.39 64.32,167.42 63.91,167.32 63.50,167.21 63.14,166.98 62.78,166.75 62.52,166.42 62.25,166.09 62.25,166.09 62.25,166.09 59.06,161.99 55.87,157.90 51.43,151.98 47.00,146.05 42.45,135.58 37.91,125.11 32.44,111.30 26.96,97.49 21.76,81.93 16.55,66.38 11.78,50.32 7.01,34.26 3.48,19.47 -0.04,4.68 1.48,2.00 3.02,-0.68 2.77,0.01 2.52,0.72 2.40,1.01 2.27,1.30 2.09,1.55 1.90,1.81 1.65,2.01 1.41,2.21 1.12,2.35 0.84,2.48 0.53,2.55 0.22,2.61 -0.09,2.60 -0.41,2.59 -0.71,2.50 -1.02,2.42 -1.29,2.26 -1.57,2.10 -1.79,1.88 -2.02,1.66 -2.19,1.40 -2.36,1.13 -2.47,0.83 -2.57,0.53 -2.59,0.21 -2.62,-0.09 -2.57,-0.40 -2.52,-0.72 -2.52,-0.72 L -2.52,-0.72 Z"></path></g><g transform="translate(367.09380579590743 173.4390880373594) rotate(0 -21.97500343359434 0.6867188572996383)" stroke="none"><path fill="#d3d3d3" d="M -0.72,2.52 Q -0.72,2.52 -3.73,3.26 -6.74,4.00 -8.96,5.02 -11.19,6.04 -17.87,7.51 -24.55,8.98 -29.91,9.61 -35.27,10.25 -39.35,9.84 -43.42,9.44 -43.85,9.45 -44.27,9.47 -44.68,9.35 -45.09,9.23 -45.44,8.98 -45.78,8.74 -46.03,8.40 -46.29,8.05 -46.41,7.65 -46.54,7.24 -46.54,6.82 -46.53,6.39 -46.39,5.99 -46.24,5.59 -45.98,5.26 -45.72,4.93 -45.36,4.69 -45.01,4.46 -44.60,4.35 -44.18,4.25 -43.76,4.28 -43.34,4.31 -42.95,4.47 -42.55,4.63 -42.23,4.92 -41.91,5.20 -41.70,5.56 -41.49,5.93 -41.40,6.35 -41.32,6.76 -41.37,7.19 -41.43,7.61 -41.61,7.99 -41.80,8.37 -42.09,8.68 -42.39,8.98 -42.77,9.17 -43.15,9.37 -43.57,9.43 -43.99,9.49 -44.41,9.41 -44.83,9.34 -45.20,9.13 -45.57,8.93 -45.86,8.61 -46.14,8.30 -46.32,7.91 -46.49,7.52 -46.53,7.10 -46.56,6.68 -46.47,6.26 -46.37,5.85 -46.14,5.49 -45.92,5.13 -45.59,4.86 -45.26,4.59 -44.86,4.44 -44.47,4.29 -44.47,4.29 -44.47,4.29 -40.87,2.33 -37.27,0.37 -32.25,-1.09 -27.23,-2.56 -20.63,-4.18 -14.03,-5.80 -9.17,-6.48 -4.31,-7.16 -1.79,-4.84 0.72,-2.52 1.01,-2.40 1.30,-2.27 1.55,-2.09 1.81,-1.90 2.01,-1.65 2.21,-1.41 2.35,-1.12 2.48,-0.84 2.55,-0.53 2.61,-0.22 2.60,0.09 2.59,0.41 2.50,0.71 2.42,1.02 2.26,1.29 2.10,1.57 1.88,1.79 1.66,2.02 1.40,2.19 1.13,2.36 0.83,2.47 0.53,2.57 0.21,2.59 -0.09,2.62 -0.40,2.57 -0.72,2.52 -0.72,2.52 L -0.72,2.52 Z"></path></g><g transform="translate(435.7656915258899 185.80002746875834) rotate(0 133.91017717346517 9.614064002197665)" stroke="none"><path fill="#d3d3d3" d="M 2.56,-0.56 Q 2.56,-0.56 4.87,2.64 7.18,5.86 7.93,7.88 8.68,9.91 9.82,12.69 10.95,15.48 12.29,19.15 13.64,22.81 14.70,27.01 15.76,31.21 16.93,35.07 18.09,38.94 18.98,41.79 19.86,44.64 20.21,46.28 20.56,47.92 20.69,48.66 20.83,49.41 20.78,50.17 20.74,50.93 20.51,51.65 20.28,52.38 19.89,53.03 19.49,53.68 18.96,54.21 18.42,54.75 17.77,55.14 17.12,55.53 16.39,55.76 15.67,55.98 14.91,56.03 14.15,56.07 13.40,55.93 12.65,55.80 11.96,55.48 11.27,55.17 10.67,54.70 10.08,54.23 9.61,53.63 9.14,53.03 8.83,52.34 8.52,51.65 8.62,49.31 8.72,46.97 7.87,40.36 7.02,33.76 6.78,27.58 6.53,21.39 6.43,15.23 6.33,9.08 7.09,3.22 7.86,-2.63 10.40,-8.12 12.95,-13.60 17.50,-15.74 22.04,-17.88 26.87,-16.13 31.70,-14.39 36.77,-7.28 41.83,-0.17 44.96,6.37 48.08,12.92 50.17,18.07 52.27,23.22 53.13,25.74 53.99,28.25 54.19,28.98 54.38,29.71 54.40,30.47 54.42,31.23 54.25,31.97 54.09,32.70 53.75,33.38 53.41,34.06 52.92,34.64 52.43,35.22 51.82,35.66 51.21,36.10 50.51,36.39 49.80,36.67 49.06,36.78 48.31,36.89 47.55,36.81 46.80,36.74 46.09,36.48 45.37,36.23 44.74,35.81 44.11,35.40 43.59,34.84 43.08,34.29 42.71,33.62 42.35,32.96 42.09,30.56 41.84,28.15 41.48,22.62 41.11,17.08 40.97,10.56 40.82,4.05 42.01,-2.47 43.21,-9.00 46.02,-14.74 48.82,-20.48 53.61,-23.25 58.39,-26.01 62.45,-24.76 66.51,-23.51 70.13,-18.98 73.76,-14.46 76.64,-9.48 79.52,-4.49 82.76,1.52 86.00,7.54 88.78,11.75 91.57,15.96 94.19,17.93 96.81,19.90 99.64,20.89 102.47,21.88 106.66,19.08 110.86,16.29 112.59,13.02 114.33,9.75 115.01,5.80 115.69,1.86 115.30,-2.48 114.91,-6.82 113.03,-11.28 111.16,-15.74 109.65,-18.07 108.14,-20.41 108.08,-17.82 108.02,-15.23 108.90,-10.03 109.77,-4.83 111.85,0.27 113.93,5.39 116.91,9.58 119.88,13.77 123.66,16.66 127.45,19.55 132.31,20.17 137.17,20.78 141.12,19.59 145.06,18.39 147.33,15.56 149.61,12.73 150.57,9.04 151.53,5.35 151.69,2.03 151.85,-1.27 151.58,-3.77 151.30,-6.26 151.42,-6.94 151.55,-7.62 151.83,-8.25 152.11,-8.88 152.53,-9.42 152.96,-9.96 153.50,-10.39 154.04,-10.81 154.67,-11.09 155.30,-11.38 155.97,-11.50 156.65,-11.63 157.34,-11.59 158.02,-11.55 158.68,-11.34 159.34,-11.14 159.93,-10.78 160.52,-10.43 161.01,-9.94 161.49,-9.46 161.85,-8.87 162.21,-8.28 162.41,-7.62 162.62,-6.96 162.66,-6.28 162.70,-5.59 163.96,-2.04 165.22,1.50 166.84,6.38 168.46,11.26 170.43,17.34 172.40,23.43 173.91,26.88 175.42,30.33 176.48,32.61 177.54,34.88 177.70,35.67 177.86,36.45 177.83,37.25 177.80,38.05 177.58,38.81 177.36,39.58 176.96,40.27 176.56,40.97 176.00,41.54 175.45,42.12 174.78,42.55 174.10,42.97 173.34,43.23 172.59,43.48 171.79,43.55 170.99,43.61 170.20,43.49 169.42,43.36 168.68,43.05 167.94,42.73 167.31,42.25 166.67,41.77 166.16,41.16 165.65,40.54 165.31,39.82 164.97,39.09 164.94,35.89 164.91,32.69 164.63,25.09 164.35,17.50 164.29,8.90 164.23,0.30 165.45,-7.04 166.66,-14.38 168.97,-19.99 171.28,-25.59 177.95,-29.18 184.63,-32.76 189.34,-29.48 194.05,-26.20 198.76,-20.35 203.48,-14.50 207.13,-7.86 210.79,-1.22 213.16,4.48 215.52,10.18 216.88,13.73 218.23,17.27 218.42,17.57 218.60,17.87 218.79,18.62 218.98,19.37 218.98,20.14 218.98,20.91 218.80,21.66 218.62,22.41 218.26,23.09 217.91,23.78 217.40,24.36 216.89,24.94 216.25,25.38 215.62,25.82 214.90,26.10 214.18,26.37 213.41,26.47 212.64,26.56 211.88,26.47 211.11,26.38 210.39,26.11 209.67,25.84 209.03,25.40 208.39,24.97 207.88,24.39 207.37,23.81 207.00,23.13 206.64,22.45 205.57,19.89 204.50,17.33 203.46,11.57 202.42,5.81 202.04,-0.24 201.66,-6.29 202.75,-13.40 203.83,-20.50 206.62,-25.69 209.41,-30.88 214.21,-32.70 219.02,-34.52 223.73,-32.27 228.44,-30.01 233.61,-23.34 238.79,-16.67 242.83,-9.92 246.88,-3.17 250.16,2.83 253.44,8.85 256.14,12.64 258.84,16.43 260.52,18.80 262.21,21.16 265.34,23.04 268.48,24.92 268.87,25.09 269.25,25.27 269.57,25.55 269.88,25.84 270.09,26.21 270.29,26.58 270.37,27.00 270.44,27.42 270.38,27.84 270.32,28.26 270.12,28.64 269.93,29.02 269.63,29.32 269.32,29.61 268.94,29.80 268.56,29.98 268.14,30.04 267.72,30.09 267.30,30.00 266.88,29.92 266.52,29.71 266.15,29.49 265.87,29.17 265.59,28.85 265.42,28.46 265.26,28.07 265.23,27.65 265.20,27.22 265.31,26.81 265.41,26.40 265.65,26.04 265.88,25.69 266.21,25.43 266.55,25.16 266.95,25.02 267.35,24.88 267.77,24.87 268.20,24.87 268.60,24.99 269.01,25.12 269.35,25.38 269.69,25.63 269.94,25.97 270.18,26.32 270.30,26.73 270.42,27.14 270.41,27.56 270.39,27.99 270.24,28.38 270.09,28.78 269.82,29.11 269.55,29.44 269.19,29.66 268.83,29.89 268.41,29.99 268.00,30.08 267.58,30.04 267.15,30.01 267.15,30.01 267.15,30.01 265.01,30.31 262.87,30.61 259.05,29.82 255.22,29.04 252.04,26.34 248.85,23.64 245.65,19.24 242.45,14.85 239.29,9.03 236.13,3.21 232.46,-3.02 228.79,-9.26 225.08,-14.55 221.38,-19.84 220.00,-21.68 218.63,-23.52 217.38,-20.92 216.14,-18.32 215.17,-12.68 214.19,-7.03 214.55,-1.67 214.91,3.68 215.61,8.06 216.31,12.44 217.45,15.15 218.60,17.87 218.79,18.62 218.98,19.37 218.98,20.14 218.98,20.91 218.80,21.66 218.62,22.41 218.26,23.09 217.91,23.78 217.40,24.36 216.89,24.94 216.25,25.38 215.62,25.82 214.90,26.10 214.18,26.37 213.41,26.47 212.65,26.56 211.88,26.47 211.11,26.38 210.39,26.11 209.67,25.84 209.03,25.40 208.39,24.97 207.88,24.39 207.37,23.82 207.00,23.13 206.64,22.45 206.48,22.16 206.32,21.86 205.01,18.44 203.70,15.02 201.64,9.91 199.58,4.79 196.55,-1.00 193.51,-6.80 189.92,-11.65 186.32,-16.51 182.63,-19.82 178.93,-23.14 180.70,-21.81 182.47,-20.48 180.67,-16.38 178.87,-12.28 177.83,-6.07 176.80,0.12 177.03,8.53 177.27,16.94 177.40,25.91 177.54,34.88 177.70,35.66 177.86,36.45 177.83,37.25 177.80,38.04 177.58,38.81 177.36,39.58 176.96,40.27 176.56,40.97 176.00,41.54 175.45,42.12 174.78,42.55 174.10,42.97 173.34,43.23 172.59,43.48 171.79,43.55 170.99,43.61 170.21,43.49 169.42,43.36 168.68,43.05 167.95,42.73 167.31,42.25 166.67,41.77 166.16,41.16 165.65,40.54 165.31,39.82 164.97,39.09 165.89,40.11 166.82,41.13 165.04,38.27 163.27,35.40 161.63,31.30 159.99,27.20 158.25,21.08 156.51,14.97 155.00,9.73 153.49,4.49 152.39,-0.88 151.30,-6.26 151.42,-6.94 151.55,-7.62 151.83,-8.25 152.11,-8.87 152.53,-9.42 152.96,-9.96 153.50,-10.39 154.04,-10.81 154.67,-11.09 155.30,-11.38 155.97,-11.50 156.65,-11.63 157.34,-11.59 158.02,-11.55 158.68,-11.34 159.34,-11.14 159.93,-10.78 160.52,-10.43 161.01,-9.94 161.49,-9.46 161.85,-8.87 162.21,-8.28 162.41,-7.62 162.62,-6.97 162.66,-6.28 162.70,-5.59 163.02,-3.11 163.33,-0.62 163.02,4.05 162.70,8.74 160.70,14.59 158.69,20.43 153.97,25.18 149.26,29.93 142.33,31.69 135.40,33.46 127.69,31.76 119.98,30.06 114.62,25.63 109.26,21.20 105.58,15.62 101.91,10.03 99.49,3.28 97.08,-3.46 96.67,-11.31 96.25,-19.15 98.61,-23.80 100.97,-28.45 105.00,-30.08 109.03,-31.71 113.40,-29.93 117.77,-28.16 120.43,-24.34 123.09,-20.51 125.47,-14.19 127.84,-7.87 128.15,-1.72 128.45,4.42 127.06,10.30 125.67,16.19 122.52,21.18 119.38,26.17 113.89,30.03 108.41,33.89 103.20,33.93 97.99,33.98 93.36,31.88 88.72,29.78 84.92,26.34 81.12,22.89 78.09,18.09 75.06,13.28 72.05,7.39 69.04,1.50 66.51,-2.97 63.98,-7.45 61.64,-11.01 59.30,-14.58 57.21,-10.60 55.13,-6.61 54.10,-1.41 53.08,3.77 53.28,9.99 53.47,16.20 53.73,22.22 53.99,28.25 54.19,28.98 54.38,29.71 54.40,30.47 54.42,31.23 54.25,31.97 54.09,32.70 53.75,33.38 53.41,34.06 52.92,34.64 52.43,35.21 51.82,35.66 51.21,36.10 50.51,36.39 49.81,36.67 49.06,36.78 48.31,36.89 47.55,36.81 46.80,36.74 46.09,36.48 45.37,36.23 44.74,35.81 44.11,35.40 43.60,34.84 43.08,34.29 42.71,33.63 42.35,32.96 41.49,30.44 40.63,27.93 38.68,23.08 36.73,18.24 34.06,12.43 31.38,6.61 27.01,-0.08 22.63,-6.79 21.38,-3.78 20.14,-0.77 19.40,4.06 18.67,8.90 18.76,14.91 18.85,20.92 19.06,26.65 19.27,32.38 19.81,37.08 20.35,41.78 20.45,44.85 20.56,47.91 20.69,48.66 20.83,49.41 20.78,50.17 20.74,50.93 20.51,51.65 20.28,52.38 19.89,53.03 19.49,53.68 18.96,54.21 18.42,54.75 17.77,55.14 17.12,55.53 16.39,55.76 15.67,55.98 14.91,56.03 14.15,56.07 13.40,55.93 12.65,55.80 11.96,55.48 11.27,55.17 10.67,54.70 10.08,54.23 9.61,53.63 9.14,53.03 8.83,52.34 8.52,51.65 8.10,50.03 7.69,48.41 6.78,45.47 5.87,42.53 4.66,38.33 3.45,34.14 2.66,30.51 1.86,26.89 0.69,23.31 -0.47,19.74 -1.53,16.62 -2.60,13.50 -3.31,10.92 -4.02,8.35 -3.29,4.46 -2.56,0.56 -2.59,0.25 -2.62,-0.06 -2.58,-0.37 -2.53,-0.68 -2.41,-0.98 -2.29,-1.27 -2.11,-1.53 -1.92,-1.78 -1.68,-1.99 -1.44,-2.19 -1.15,-2.33 -0.87,-2.47 -0.56,-2.54 -0.25,-2.61 0.06,-2.60 0.37,-2.59 0.68,-2.51 0.98,-2.43 1.26,-2.28 1.54,-2.12 1.77,-1.91 2.00,-1.69 2.17,-1.43 2.35,-1.16 2.45,-0.86 2.56,-0.56 2.56,-0.56 L 2.56,-0.56 Z"></path></g><g transform="translate(728.3079247356136 163.82502403516446) rotate(0 -2.746875429199008 20.601565718994607)" stroke="none"><path fill="#d3d3d3" d="M -2.52,-0.72 Q -2.52,-0.72 -3.18,-3.85 -3.84,-6.98 -7.10,-4.89 -10.36,-2.79 -12.53,-1.12 -14.69,0.54 -16.75,2.39 -18.80,4.24 -20.08,6.15 -21.35,8.06 -22.04,11.02 -22.72,13.97 -23.10,17.06 -23.47,20.15 -22.90,22.75 -22.32,25.35 -21.13,27.64 -19.93,29.93 -18.06,32.26 -16.20,34.59 -13.21,37.40 -10.22,40.21 -7.54,41.43 -4.85,42.65 -2.16,43.63 0.51,44.61 3.08,45.42 5.64,46.23 8.03,45.72 10.42,45.22 12.42,44.49 14.42,43.77 16.64,42.04 18.85,40.31 20.51,37.70 22.16,35.10 22.32,34.71 22.49,34.32 22.77,34.00 23.05,33.68 23.41,33.46 23.78,33.25 24.20,33.17 24.61,33.08 25.03,33.13 25.46,33.18 25.84,33.37 26.22,33.55 26.53,33.85 26.83,34.15 27.02,34.52 27.22,34.90 27.28,35.32 27.34,35.74 27.27,36.16 27.19,36.58 26.99,36.95 26.78,37.32 26.47,37.61 26.16,37.90 25.77,38.07 25.38,38.25 24.96,38.29 24.54,38.32 24.12,38.23 23.71,38.13 23.35,37.91 22.99,37.68 22.72,37.35 22.45,37.03 22.30,36.63 22.14,36.23 22.13,35.81 22.11,35.38 22.23,34.97 22.35,34.57 22.59,34.22 22.84,33.87 23.18,33.62 23.52,33.37 23.93,33.24 24.33,33.11 24.75,33.11 25.18,33.12 25.58,33.26 25.98,33.40 26.32,33.66 26.65,33.93 26.88,34.28 27.12,34.64 27.22,35.05 27.33,35.46 27.30,35.88 27.27,36.31 27.27,36.31 27.27,36.31 27.48,38.07 27.69,39.84 27.33,43.14 26.97,46.43 25.58,48.61 24.19,50.80 21.48,53.01 18.77,55.22 15.35,56.43 11.93,57.63 7.15,57.96 2.38,58.29 -0.77,57.34 -3.93,56.39 -7.28,55.09 -10.62,53.78 -14.68,51.50 -18.75,49.21 -22.36,45.62 -25.97,42.03 -28.48,38.60 -30.99,35.16 -32.66,31.32 -34.33,27.47 -34.92,23.08 -35.51,18.68 -34.92,14.59 -34.32,10.51 -32.72,5.87 -31.12,1.24 -28.88,-1.69 -26.63,-4.63 -24.12,-6.76 -21.62,-8.89 -18.62,-11.00 -15.62,-13.11 -11.36,-15.04 -7.10,-16.97 -3.80,-17.06 -0.50,-17.15 2.08,-15.61 4.66,-14.07 5.88,-11.53 7.10,-8.98 7.05,-6.52 7.00,-4.06 4.76,-1.67 2.52,0.72 2.40,1.01 2.27,1.30 2.09,1.55 1.90,1.81 1.65,2.01 1.41,2.21 1.12,2.35 0.84,2.48 0.53,2.55 0.22,2.61 -0.09,2.60 -0.41,2.59 -0.71,2.50 -1.02,2.42 -1.29,2.26 -1.57,2.10 -1.79,1.88 -2.02,1.66 -2.19,1.40 -2.36,1.13 -2.47,0.83 -2.57,0.53 -2.59,0.21 -2.62,-0.09 -2.57,-0.40 -2.52,-0.72 -2.52,-0.72 L -2.52,-0.72 Z"></path></g><g transform="translate(739.295426452411 167.9453371789623) rotate(0 6.180469715698337 15.10781486059659)" stroke="none"><path fill="#d3d3d3" d="M -0.63,2.54 Q -0.63,2.54 -2.46,3.16 -4.30,3.78 -7.14,2.39 -9.98,1.00 -10.82,-1.02 -11.65,-3.04 -11.08,-6.47 -10.50,-9.90 -8.79,-11.50 -7.08,-13.09 -2.90,-13.54 1.28,-13.99 4.81,-11.98 8.35,-9.98 10.64,-7.04 12.94,-4.09 14.63,-1.27 16.32,1.55 17.56,4.63 18.80,7.72 20.03,10.83 21.25,13.94 22.07,18.93 22.90,23.93 22.18,28.59 21.47,33.25 21.65,36.42 21.84,39.59 21.81,40.01 21.78,40.43 21.61,40.83 21.45,41.22 21.17,41.54 20.89,41.86 20.52,42.07 20.15,42.28 19.74,42.37 19.32,42.45 18.90,42.40 18.48,42.34 18.09,42.16 17.71,41.97 17.41,41.68 17.10,41.38 16.91,41.00 16.72,40.62 16.66,40.20 16.60,39.78 16.67,39.36 16.75,38.94 16.95,38.57 17.16,38.20 17.47,37.91 17.79,37.63 18.18,37.45 18.56,37.28 18.99,37.24 19.41,37.20 19.82,37.30 20.24,37.40 20.60,37.63 20.96,37.85 21.23,38.18 21.50,38.51 21.65,38.91 21.80,39.30 21.81,39.73 21.83,40.15 21.71,40.56 21.59,40.97 21.34,41.32 21.10,41.66 20.76,41.92 20.41,42.17 20.01,42.30 19.60,42.42 19.18,42.42 18.75,42.41 18.35,42.27 17.95,42.12 17.62,41.86 17.28,41.60 17.05,41.24 16.82,40.89 16.71,40.47 16.61,40.06 16.61,40.06 16.61,40.06 16.22,36.91 15.82,33.76 14.33,29.88 12.83,25.99 11.81,22.02 10.80,18.04 9.56,14.92 8.31,11.80 7.46,9.52 6.61,7.23 5.24,4.86 3.87,2.48 2.67,0.61 1.48,-1.24 -0.26,-3.30 -2.01,-5.36 -0.68,-3.95 0.63,-2.54 0.93,-2.43 1.22,-2.32 1.48,-2.14 1.74,-1.96 1.95,-1.72 2.16,-1.48 2.31,-1.20 2.45,-0.92 2.53,-0.61 2.60,-0.30 2.60,0.00 2.60,0.32 2.52,0.63 2.45,0.93 2.30,1.21 2.15,1.49 1.94,1.73 1.73,1.97 1.47,2.15 1.21,2.32 0.91,2.44 0.61,2.55 0.30,2.58 -0.00,2.62 -0.32,2.58 -0.63,2.54 -0.63,2.54 L -0.63,2.54 Z"></path></g><g transform="translate(772.2579316028023 198.16096690015547) rotate(0 15.107814860596136 -22.66172229089443)" stroke="none"><path fill="#d3d3d3" d="M -2.61,-0.18 Q -2.61,-0.18 -3.50,-5.80 -4.38,-11.42 -4.63,-15.82 -4.87,-20.23 -5.72,-24.21 -6.57,-28.19 -7.65,-31.28 -8.73,-34.37 -10.51,-36.60 -12.29,-38.84 -14.03,-40.76 -15.77,-42.68 -15.71,-45.40 -15.64,-48.11 -13.83,-50.82 -12.01,-53.52 -9.26,-55.58 -6.51,-57.64 -2.18,-59.38 2.14,-61.11 6.57,-61.47 11.00,-61.82 14.81,-60.83 18.61,-59.84 21.74,-56.76 24.87,-53.68 26.90,-49.22 28.94,-44.77 29.84,-37.66 30.74,-30.56 31.06,-24.55 31.39,-18.54 31.53,-13.61 31.67,-8.69 31.74,-4.62 31.81,-0.55 32.18,2.34 32.55,5.25 35.20,6.61 37.85,7.96 39.48,8.16 41.11,8.36 41.54,8.41 41.96,8.47 42.34,8.65 42.72,8.84 43.02,9.14 43.32,9.44 43.51,9.82 43.71,10.20 43.76,10.62 43.82,11.04 43.75,11.46 43.67,11.88 43.46,12.25 43.25,12.62 42.94,12.90 42.62,13.19 42.23,13.36 41.84,13.53 41.42,13.56 41.00,13.60 40.58,13.50 40.17,13.40 39.81,13.17 39.45,12.95 39.19,12.62 38.92,12.29 38.77,11.89 38.62,11.49 38.61,11.07 38.59,10.64 38.72,10.23 38.84,9.83 39.09,9.48 39.33,9.13 39.68,8.88 40.02,8.64 40.43,8.51 40.83,8.38 41.26,8.39 41.68,8.40 42.08,8.55 42.48,8.69 42.81,8.95 43.14,9.22 43.38,9.58 43.61,9.93 43.71,10.34 43.82,10.76 43.78,11.18 43.75,11.60 43.58,12.00 43.42,12.39 43.14,12.70 42.85,13.02 42.48,13.23 42.12,13.44 41.70,13.53 41.28,13.61 41.28,13.61 41.28,13.61 39.67,13.91 38.05,14.21 35.16,14.85 32.28,15.49 28.56,14.26 24.85,13.03 22.99,10.00 21.14,6.97 20.68,3.29 20.21,-0.39 20.18,-4.39 20.14,-8.40 20.04,-13.18 19.93,-17.97 19.68,-23.65 19.42,-29.33 18.95,-34.87 18.48,-40.41 17.29,-43.42 16.11,-46.43 13.81,-48.30 11.51,-50.17 8.87,-50.11 6.23,-50.05 3.22,-48.94 0.22,-47.84 -3.26,-47.65 -6.74,-47.46 -4.37,-45.15 -1.99,-42.84 -0.39,-40.35 1.19,-37.86 2.44,-34.07 3.70,-30.28 4.62,-25.52 5.55,-20.75 5.75,-15.72 5.96,-10.69 4.29,-5.25 2.61,0.18 2.55,0.49 2.49,0.80 2.36,1.09 2.23,1.38 2.03,1.63 1.83,1.87 1.58,2.07 1.33,2.26 1.04,2.38 0.75,2.51 0.44,2.56 0.12,2.62 -0.18,2.60 -0.50,2.57 -0.80,2.48 -1.10,2.38 -1.37,2.21 -1.64,2.04 -1.86,1.82 -2.08,1.59 -2.24,1.32 -2.40,1.05 -2.49,0.74 -2.58,0.44 -2.60,0.12 -2.61,-0.18 -2.61,-0.18 L -2.61,-0.18 Z"></path></g><g transform="translate(824.4485647575889 169.3187748935634) rotate(0 11.674220574096807 92.02032687817609)" stroke="none"><path fill="#d3d3d3" d="M 1.57,2.10 Q 1.57,2.10 0.83,4.21 0.10,6.33 -0.37,9.70 -0.85,13.07 -0.56,16.48 -0.27,19.89 0.45,21.98 1.19,24.08 3.76,22.95 6.34,21.83 8.38,16.96 10.42,12.09 11.44,6.25 12.47,0.42 12.53,-5.46 12.60,-11.35 11.91,-15.51 11.22,-19.68 13.51,-20.25 15.79,-20.83 16.71,-16.75 17.62,-12.66 18.89,-8.07 20.17,-3.48 24.95,6.42 29.74,16.34 37.25,29.23 44.75,42.13 52.42,57.34 60.08,72.56 66.17,87.90 72.27,103.24 75.75,122.95 79.23,142.67 75.74,158.79 72.24,174.91 60.97,186.45 49.69,197.98 34.71,203.76 19.74,209.53 4.56,209.06 -10.61,208.59 -24.75,198.73 -38.88,188.88 -45.48,176.40 -52.09,163.92 -54.41,152.72 -56.72,141.53 -56.43,133.44 -56.13,125.36 -52.04,117.79 -47.96,110.23 -42.62,105.31 -37.29,100.39 -32.44,97.37 -27.59,94.34 -24.35,93.31 -21.11,92.27 -18.67,92.33 -16.23,92.39 -15.83,92.27 -15.42,92.15 -14.99,92.17 -14.57,92.19 -14.17,92.34 -13.78,92.50 -13.45,92.77 -13.12,93.04 -12.90,93.40 -12.67,93.76 -12.58,94.17 -12.48,94.59 -12.52,95.01 -12.56,95.43 -12.74,95.82 -12.91,96.21 -13.20,96.52 -13.49,96.83 -13.86,97.04 -14.23,97.24 -14.65,97.31 -15.07,97.39 -15.49,97.32 -15.91,97.26 -16.29,97.07 -16.67,96.87 -16.96,96.57 -17.26,96.26 -17.44,95.88 -17.63,95.50 -17.68,95.07 -17.73,94.65 -17.64,94.24 -17.55,93.82 -17.34,93.45 -17.13,93.09 -16.80,92.81 -16.48,92.53 -16.09,92.37 -15.70,92.20 -15.27,92.18 -14.85,92.15 -14.44,92.26 -14.03,92.37 -13.67,92.60 -13.32,92.83 -13.06,93.17 -12.80,93.50 -12.66,93.91 -12.52,94.31 -12.51,94.73 -12.51,95.16 -12.64,95.56 -12.77,95.96 -13.02,96.31 -13.27,96.65 -13.62,96.89 -13.97,97.13 -13.97,97.13 -13.97,97.13 -15.45,99.07 -16.94,101.00 -18.99,102.49 -21.05,103.98 -24.96,106.92 -28.87,109.85 -32.98,113.37 -37.10,116.89 -40.39,121.75 -43.68,126.61 -44.01,132.90 -44.34,139.18 -42.57,148.79 -40.79,158.40 -35.91,168.85 -31.03,179.30 -19.99,188.10 -8.95,196.90 3.50,197.59 15.96,198.27 28.86,193.76 41.76,189.25 51.47,180.30 61.18,171.36 64.33,157.86 67.48,144.37 64.29,125.99 61.11,107.61 55.24,92.77 49.36,77.94 41.87,63.04 34.38,48.13 26.67,34.76 18.97,21.38 13.98,10.37 8.98,-0.63 7.69,-6.26 6.39,-11.90 6.25,-16.21 6.12,-20.51 7.43,-23.69 8.73,-26.87 10.84,-27.94 12.94,-29.00 17.07,-25.25 21.20,-21.50 22.01,-16.36 22.81,-11.22 22.68,-4.50 22.55,2.20 21.26,9.30 19.97,16.39 16.55,23.36 13.14,30.33 8.89,32.75 4.64,35.16 0.22,34.33 -4.20,33.51 -6.73,30.67 -9.27,27.84 -10.29,24.19 -11.30,20.53 -11.42,15.98 -11.54,11.43 -10.81,7.80 -10.08,4.17 -8.25,1.29 -6.42,-1.59 -3.99,-1.84 -1.57,-2.10 -1.30,-2.25 -1.02,-2.41 -0.72,-2.50 -0.41,-2.59 -0.10,-2.60 0.21,-2.61 0.52,-2.55 0.83,-2.49 1.12,-2.35 1.40,-2.21 1.65,-2.01 1.89,-1.81 2.08,-1.56 2.27,-1.31 2.39,-1.01 2.52,-0.72 2.57,-0.41 2.62,-0.10 2.59,0.21 2.57,0.52 2.47,0.82 2.37,1.12 2.20,1.39 2.03,1.66 1.80,1.88 1.57,2.10 1.57,2.10 L 1.57,2.10 Z"></path></g><g transform="translate(978.2735887927488 167.94533717896047) rotate(0 1.3734377145997314 -59.05782172778618)" stroke="none"><path fill="#d3d3d3" d="M 1.35,-2.25 Q 1.35,-2.25 0.99,-1.69 0.64,-1.13 2.37,-4.10 4.11,-7.08 5.28,-14.81 6.45,-22.55 7.05,-35.33 7.64,-48.12 6.34,-61.96 5.03,-75.80 2.55,-89.48 0.06,-103.17 -3.29,-115.13 -6.66,-127.08 -9.21,-134.01 -11.77,-140.93 -13.58,-144.16 -15.39,-147.38 -16.90,-139.68 -18.42,-131.97 -20.66,-118.49 -22.90,-105.01 -23.51,-89.92 -24.11,-74.83 -23.58,-60.20 -23.06,-45.58 -20.91,-33.39 -18.76,-21.20 -14.84,-11.34 -10.92,-1.49 -6.05,5.01 -1.18,11.52 4.51,17.01 10.21,22.49 15.54,26.15 20.88,29.80 24.93,30.73 28.97,31.67 32.54,33.07 36.10,34.48 36.51,34.61 36.91,34.74 37.25,35.00 37.59,35.25 37.84,35.60 38.08,35.95 38.19,36.36 38.31,36.77 38.29,37.19 38.28,37.62 38.12,38.01 37.97,38.41 37.70,38.74 37.42,39.06 37.06,39.29 36.70,39.51 36.29,39.60 35.87,39.70 35.45,39.66 35.03,39.62 34.64,39.44 34.25,39.27 33.94,38.98 33.63,38.69 33.43,38.31 33.22,37.94 33.15,37.52 33.08,37.10 33.14,36.68 33.21,36.26 33.40,35.89 33.60,35.51 33.90,35.21 34.21,34.92 34.59,34.74 34.98,34.55 35.40,34.50 35.82,34.45 36.24,34.54 36.65,34.63 37.02,34.84 37.39,35.06 37.66,35.38 37.94,35.70 38.10,36.09 38.26,36.49 38.29,36.91 38.32,37.34 38.21,37.75 38.10,38.16 37.86,38.51 37.63,38.87 37.29,39.13 36.96,39.39 36.56,39.53 36.15,39.67 35.73,39.67 35.30,39.67 35.31,39.67 35.31,39.67 31.48,39.95 27.66,40.22 21.71,39.62 15.75,39.01 8.71,35.34 1.67,31.66 -5.01,25.47 -11.71,19.28 -17.43,11.33 -23.14,3.39 -27.40,-7.76 -31.66,-18.91 -33.90,-32.01 -36.14,-45.11 -36.64,-60.24 -37.14,-75.38 -36.44,-91.30 -35.75,-107.22 -33.07,-122.10 -30.40,-136.99 -25.80,-146.55 -21.19,-156.12 -14.01,-156.04 -6.83,-155.97 -3.23,-150.72 0.36,-145.47 3.09,-138.03 5.82,-130.58 9.33,-118.02 12.83,-105.46 15.36,-91.20 17.88,-76.93 19.08,-62.16 20.28,-47.40 19.33,-33.75 18.38,-20.10 15.92,-10.24 13.45,-0.38 10.35,2.74 7.25,5.87 2.95,4.06 -1.35,2.25 -1.60,2.05 -1.85,1.86 -2.04,1.61 -2.24,1.36 -2.37,1.07 -2.50,0.78 -2.56,0.47 -2.62,0.16 -2.60,-0.14 -2.58,-0.46 -2.49,-0.76 -2.39,-1.07 -2.23,-1.34 -2.07,-1.61 -1.84,-1.83 -1.62,-2.06 -1.35,-2.22 -1.08,-2.39 -0.78,-2.48 -0.48,-2.58 -0.16,-2.60 0.15,-2.62 0.46,-2.56 0.77,-2.51 1.06,-2.38 1.35,-2.25 1.35,-2.25 L 1.35,-2.25 Z"></path></g><g transform="translate(1051.06578766653 132.23595659936836) rotate(0 70.04532344458175 120.17580002746945)" stroke="none"><path fill="#d3d3d3" d="M -1.85,1.85 Q -1.85,1.85 -1.31,2.64 -0.76,3.44 -3.59,7.35 -6.41,11.27 -8.33,15.30 -10.24,19.33 -11.31,25.97 -12.38,32.60 -11.74,38.05 -11.10,43.50 -9.18,47.54 -7.26,51.58 -4.46,53.85 -1.67,56.12 1.32,56.62 4.31,57.11 7.78,54.77 11.25,52.43 13.28,49.05 15.31,45.68 16.18,41.26 17.05,36.84 17.13,32.39 17.22,27.94 16.80,25.58 16.38,23.22 15.48,22.31 14.58,21.39 14.51,20.69 14.45,19.99 14.55,19.30 14.65,18.61 14.92,17.96 15.18,17.31 15.60,16.74 16.01,16.17 16.55,15.72 17.09,15.27 17.72,14.96 18.35,14.65 19.03,14.50 19.72,14.35 20.42,14.37 21.12,14.39 21.80,14.58 22.47,14.76 23.08,15.11 23.70,15.45 24.21,15.93 24.72,16.41 25.11,16.99 25.49,17.58 25.72,18.24 25.95,18.91 25.23,22.50 24.52,26.09 24.79,28.79 25.05,31.49 25.83,34.81 26.61,38.13 28.43,40.68 30.25,43.22 33.29,43.14 36.33,43.07 38.34,40.87 40.35,38.66 41.90,34.08 43.45,29.50 44.32,25.94 45.19,22.38 45.64,20.31 46.09,18.25 46.33,17.61 46.56,16.97 46.95,16.40 47.33,15.84 47.84,15.38 48.34,14.93 48.94,14.60 49.54,14.28 50.20,14.11 50.86,13.94 51.55,13.94 52.23,13.93 52.89,14.09 53.55,14.25 54.16,14.56 54.77,14.87 55.28,15.32 55.79,15.76 56.19,16.32 56.58,16.88 56.83,17.51 57.07,18.15 57.16,18.83 57.25,19.50 57.17,20.18 57.10,20.86 56.91,23.86 56.72,26.85 57.96,31.49 59.20,36.13 60.74,39.69 62.28,43.24 65.70,44.13 69.12,45.02 72.01,42.95 74.89,40.87 76.66,37.64 78.43,34.41 79.68,30.23 80.93,26.04 81.50,21.33 82.06,16.62 81.94,12.88 81.81,9.14 81.45,7.00 81.09,4.85 84.34,6.51 87.59,8.17 89.41,11.54 91.23,14.91 92.06,19.18 92.89,23.44 95.07,28.81 97.26,34.17 104.48,48.69 111.69,63.20 117.19,74.65 122.68,86.10 131.77,107.26 140.87,128.42 147.55,147.86 154.23,167.30 157.90,183.30 161.58,199.29 162.17,210.99 162.76,222.68 156.09,231.45 149.43,240.23 135.63,242.80 121.83,245.37 106.00,241.73 90.16,238.08 76.73,230.29 63.30,222.50 53.68,212.39 44.05,202.28 39.66,190.80 35.26,179.32 36.17,167.38 37.07,155.45 41.11,146.85 45.15,138.25 48.13,132.52 51.10,126.79 51.32,126.42 51.53,126.05 51.85,125.77 52.17,125.49 52.56,125.33 52.96,125.17 53.38,125.14 53.80,125.11 54.21,125.22 54.63,125.32 54.98,125.56 55.34,125.79 55.60,126.12 55.86,126.46 56.00,126.86 56.14,127.26 56.15,127.69 56.16,128.11 56.03,128.52 55.90,128.92 55.65,129.26 55.39,129.60 55.05,129.85 54.70,130.09 54.29,130.21 53.88,130.33 53.46,130.31 53.03,130.30 52.64,130.15 52.24,130.00 51.91,129.73 51.58,129.46 51.36,129.09 51.13,128.73 51.04,128.32 50.94,127.91 50.98,127.48 51.02,127.06 51.19,126.67 51.36,126.28 51.65,125.97 51.94,125.66 52.31,125.45 52.68,125.25 53.10,125.17 53.52,125.10 53.94,125.16 54.36,125.22 54.74,125.42 55.12,125.61 55.41,125.91 55.71,126.22 55.90,126.60 56.08,126.98 56.13,127.41 56.18,127.83 56.10,128.24 56.01,128.66 56.01,128.66 56.01,128.66 54.42,134.92 52.83,141.17 50.70,148.79 48.56,156.41 47.94,165.90 47.32,175.40 50.48,184.62 53.64,193.84 61.80,202.70 69.96,211.56 81.65,218.68 93.34,225.80 106.87,229.37 120.41,232.93 131.12,232.03 141.83,231.12 146.38,226.14 150.94,221.16 150.05,211.64 149.16,202.12 145.64,186.79 142.12,171.45 135.59,152.47 129.06,133.50 120.07,112.58 111.08,91.66 105.63,80.28 100.17,68.91 92.76,53.87 85.36,38.84 82.87,32.28 80.39,25.73 79.52,20.52 78.65,15.32 78.73,9.59 78.81,3.87 82.41,0.26 86.01,-3.34 89.63,-0.28 93.26,2.76 93.78,5.78 94.31,8.80 94.40,13.48 94.50,18.17 93.73,23.99 92.96,29.81 91.07,35.55 89.19,41.28 85.42,46.52 81.66,51.76 75.24,54.76 68.82,57.75 63.53,56.66 58.23,55.58 54.56,52.08 50.89,48.58 49.08,43.64 47.28,38.70 46.24,32.65 45.19,26.60 45.64,22.42 46.09,18.25 46.33,17.61 46.56,16.97 46.95,16.40 47.33,15.84 47.84,15.38 48.34,14.93 48.94,14.60 49.54,14.28 50.20,14.11 50.86,13.94 51.55,13.94 52.23,13.93 52.89,14.09 53.55,14.25 54.16,14.56 54.77,14.87 55.28,15.32 55.79,15.76 56.19,16.32 56.58,16.88 56.83,17.51 57.07,18.15 57.16,18.83 57.25,19.50 57.17,20.18 57.10,20.86 56.75,22.95 56.40,25.04 55.39,29.41 54.38,33.79 51.50,40.43 48.63,47.07 43.94,50.85 39.25,54.62 34.25,55.04 29.24,55.47 24.89,52.93 20.54,50.38 17.71,45.64 14.87,40.90 13.98,36.38 13.10,31.85 13.84,26.62 14.58,21.39 14.51,20.69 14.45,20.00 14.55,19.30 14.65,18.61 14.92,17.96 15.18,17.31 15.60,16.74 16.01,16.18 16.55,15.72 17.09,15.27 17.72,14.96 18.35,14.65 19.03,14.50 19.72,14.35 20.42,14.37 21.12,14.39 21.80,14.58 22.47,14.76 23.08,15.11 23.70,15.45 24.21,15.93 24.72,16.41 25.11,16.99 25.49,17.58 25.72,18.24 25.95,18.91 26.46,19.24 26.97,19.58 28.00,23.89 29.04,28.19 28.83,33.86 28.63,39.52 26.96,45.87 25.29,52.23 21.35,57.48 17.40,62.74 10.53,65.85 3.65,68.96 -2.82,67.41 -9.30,65.85 -13.93,61.46 -18.56,57.06 -21.10,50.98 -23.64,44.90 -24.22,37.69 -24.79,30.47 -23.14,22.17 -21.48,13.88 -18.85,8.79 -16.22,3.71 -12.74,-0.31 -9.26,-4.34 -5.83,-5.47 -2.39,-6.59 -0.26,-4.22 1.85,-1.85 2.05,-1.60 2.24,-1.35 2.37,-1.07 2.50,-0.78 2.56,-0.46 2.62,-0.15 2.60,0.15 2.58,0.47 2.48,0.77 2.39,1.07 2.23,1.34 2.06,1.61 1.84,1.84 1.61,2.06 1.34,2.23 1.07,2.39 0.77,2.48 0.47,2.58 0.15,2.60 -0.15,2.62 -0.47,2.56 -0.78,2.50 -1.07,2.37 -1.35,2.24 -1.60,2.05 -1.85,1.85 -1.85,1.85 L -1.85,1.85 Z"></path></g><g transform="translate(1237.8533168520812 132.23595659936836) rotate(0 38.45625600878998 34.33594286499101)" stroke="none"><path fill="#d3d3d3" d="M 2.62,-0.17 Q 2.62,-0.17 4.39,5.65 6.17,11.49 6.05,17.06 5.92,22.64 6.28,27.76 6.63,32.89 7.51,37.06 8.38,41.23 10.69,44.08 13.00,46.92 15.50,46.89 18.01,46.86 19.77,44.25 21.53,41.64 22.74,37.12 23.96,32.60 24.57,25.29 25.17,17.98 25.46,13.52 25.75,9.07 25.83,7.93 25.92,6.80 26.04,6.15 26.16,5.50 26.44,4.90 26.71,4.30 27.12,3.78 27.53,3.26 28.06,2.85 28.58,2.45 29.19,2.18 29.79,1.91 30.44,1.79 31.09,1.68 31.75,1.72 32.41,1.76 33.05,1.96 33.68,2.16 34.24,2.51 34.81,2.85 35.27,3.32 35.74,3.79 36.08,4.36 36.42,4.93 36.61,5.56 36.81,6.20 36.84,6.86 36.88,7.52 39.51,16.09 42.13,24.66 45.31,31.29 48.48,37.93 52.10,43.77 55.72,49.62 59.67,53.70 63.62,57.78 63.46,60.18 63.30,62.58 66.65,58.98 70.00,55.38 72.35,52.38 74.71,49.38 75.00,49.06 75.28,48.75 75.65,48.54 76.03,48.34 76.44,48.26 76.86,48.19 77.28,48.25 77.70,48.31 78.08,48.50 78.46,48.69 78.76,49.00 79.06,49.30 79.24,49.68 79.43,50.07 79.48,50.49 79.53,50.91 79.45,51.33 79.36,51.74 79.15,52.11 78.94,52.48 78.62,52.76 78.30,53.04 77.91,53.20 77.52,53.37 77.09,53.40 76.67,53.43 76.26,53.32 75.85,53.21 75.49,52.98 75.13,52.75 74.87,52.42 74.61,52.08 74.47,51.68 74.32,51.28 74.32,50.86 74.31,50.43 74.44,50.03 74.57,49.62 74.82,49.28 75.07,48.94 75.42,48.69 75.76,48.45 76.17,48.33 76.58,48.21 77.00,48.22 77.43,48.24 77.83,48.39 78.22,48.54 78.55,48.81 78.88,49.08 79.11,49.44 79.33,49.80 79.43,50.21 79.53,50.63 79.49,51.05 79.45,51.47 79.28,51.86 79.11,52.25 79.11,52.25 79.11,52.25 77.30,55.61 75.50,58.97 73.23,63.98 70.96,68.99 63.14,67.49 55.31,65.99 50.53,60.89 45.75,55.79 41.84,49.33 37.92,42.87 34.52,35.41 31.12,27.95 28.95,20.38 26.78,12.81 26.35,9.81 25.92,6.80 26.04,6.15 26.16,5.50 26.44,4.90 26.71,4.30 27.12,3.78 27.53,3.26 28.06,2.85 28.58,2.45 29.18,2.18 29.79,1.91 30.44,1.79 31.09,1.68 31.75,1.72 32.41,1.76 33.05,1.96 33.68,2.16 34.24,2.51 34.81,2.85 35.27,3.32 35.74,3.79 36.08,4.36 36.42,4.93 36.61,5.56 36.81,6.20 36.84,6.86 36.88,7.52 36.71,8.65 36.55,9.77 36.25,14.35 35.94,18.93 35.16,27.31 34.38,35.68 32.33,42.06 30.28,48.43 26.20,52.88 22.13,57.32 17.15,58.20 12.16,59.08 7.86,56.54 3.56,53.99 0.35,48.92 -2.85,43.85 -3.81,38.69 -4.77,33.53 -5.01,27.85 -5.25,22.17 -4.92,17.18 -4.59,12.20 -3.61,6.18 -2.62,0.17 -2.60,-0.14 -2.58,-0.45 -2.49,-0.76 -2.40,-1.06 -2.23,-1.33 -2.07,-1.60 -1.85,-1.83 -1.63,-2.05 -1.36,-2.22 -1.09,-2.38 -0.79,-2.48 -0.48,-2.58 -0.17,-2.60 0.14,-2.62 0.45,-2.56 0.76,-2.51 1.05,-2.38 1.34,-2.25 1.59,-2.06 1.84,-1.86 2.04,-1.62 2.23,-1.37 2.37,-1.08 2.50,-0.79 2.56,-0.48 2.62,-0.17 2.62,-0.17 L 2.62,-0.17 Z"></path></g><g transform="translate(1312.0189534404622 36.09531657739353) rotate(0 15.107814860595909 78.2859497321806)" stroke="none"><path fill="#d3d3d3" d="M -2.34,1.17 Q -2.34,1.17 -4.55,0.30 -6.76,-0.56 -6.99,-1.22 -7.22,-1.88 -7.30,-2.57 -7.37,-3.27 -7.27,-3.96 -7.17,-4.65 -6.91,-5.30 -6.65,-5.95 -6.24,-6.51 -5.83,-7.08 -5.30,-7.53 -4.77,-7.98 -4.15,-8.30 -3.52,-8.61 -2.84,-8.76 -2.16,-8.92 -1.46,-8.90 -0.76,-8.89 -0.09,-8.71 0.58,-8.53 1.19,-8.19 1.80,-7.85 2.31,-7.38 2.83,-6.91 3.21,-6.33 3.60,-5.74 3.66,-1.23 3.72,3.28 4.44,11.84 5.15,20.41 8.17,40.64 11.20,60.86 14.81,78.89 18.43,96.91 21.79,111.67 25.16,126.43 27.76,136.65 30.37,146.86 31.64,152.09 32.92,157.32 34.16,161.26 35.39,165.19 35.48,165.60 35.58,166.02 35.54,166.44 35.49,166.86 35.32,167.25 35.14,167.64 34.85,167.95 34.56,168.26 34.19,168.46 33.82,168.66 33.40,168.74 32.98,168.81 32.56,168.74 32.14,168.68 31.76,168.48 31.38,168.28 31.09,167.98 30.80,167.67 30.61,167.29 30.43,166.90 30.38,166.48 30.33,166.06 30.42,165.64 30.51,165.23 30.73,164.86 30.94,164.50 31.26,164.22 31.59,163.94 31.98,163.78 32.37,163.62 32.80,163.59 33.22,163.57 33.63,163.68 34.04,163.79 34.40,164.02 34.75,164.26 35.01,164.60 35.27,164.93 35.41,165.33 35.55,165.74 35.55,166.16 35.55,166.59 35.42,166.99 35.29,167.39 35.03,167.73 34.78,168.07 34.43,168.31 34.08,168.56 33.67,168.67 33.26,168.79 32.84,168.77 32.41,168.75 32.02,168.60 31.62,168.44 31.29,168.17 30.97,167.90 30.75,167.53 30.52,167.17 30.53,167.17 30.53,167.17 28.66,163.50 26.79,159.82 23.87,154.76 20.95,149.70 17.39,139.41 13.84,129.12 10.14,114.22 6.45,99.32 2.74,81.00 -0.96,62.67 -4.01,41.98 -7.06,21.28 -6.91,10.35 -6.75,-0.56 -6.99,-1.22 -7.22,-1.88 -7.29,-2.57 -7.37,-3.27 -7.27,-3.96 -7.17,-4.65 -6.91,-5.30 -6.65,-5.95 -6.24,-6.51 -5.83,-7.08 -5.30,-7.53 -4.77,-7.98 -4.15,-8.30 -3.52,-8.61 -2.84,-8.76 -2.16,-8.92 -1.46,-8.90 -0.76,-8.89 -0.09,-8.71 0.58,-8.53 1.19,-8.19 1.80,-7.86 2.31,-7.38 2.83,-6.91 3.21,-6.33 3.60,-5.74 2.97,-3.46 2.34,-1.17 2.45,-0.87 2.56,-0.57 2.59,-0.26 2.62,0.05 2.58,0.36 2.53,0.67 2.41,0.97 2.30,1.26 2.11,1.52 1.93,1.78 1.69,1.98 1.44,2.19 1.16,2.33 0.88,2.47 0.57,2.54 0.26,2.61 -0.05,2.60 -0.36,2.60 -0.67,2.51 -0.97,2.43 -1.25,2.28 -1.53,2.13 -1.76,1.91 -2.00,1.70 -2.17,1.43 -2.34,1.17 -2.34,1.17 L -2.34,1.17 Z"></path></g><g transform="translate(1342.234583161654 122.62189259717161) rotate(0 -34.33594286499101 -2.746875429199463)" stroke="none"><path fill="#d3d3d3" d="M -1.17,2.34 Q -1.17,2.34 -3.94,2.43 -6.72,2.51 -8.87,3.12 -11.02,3.74 -18.17,3.88 -25.32,4.02 -38.01,2.37 -50.70,0.73 -59.80,-1.07 -68.91,-2.87 -69.32,-2.98 -69.73,-3.09 -70.08,-3.32 -70.44,-3.55 -70.70,-3.88 -70.97,-4.22 -71.11,-4.62 -71.25,-5.02 -71.26,-5.44 -71.27,-5.87 -71.14,-6.27 -71.01,-6.68 -70.76,-7.02 -70.51,-7.36 -70.16,-7.61 -69.81,-7.85 -69.40,-7.97 -69.00,-8.09 -68.57,-8.08 -68.15,-8.06 -67.75,-7.91 -67.35,-7.76 -67.02,-7.49 -66.69,-7.22 -66.47,-6.86 -66.24,-6.50 -66.15,-6.09 -66.05,-5.68 -66.09,-5.25 -66.12,-4.83 -66.30,-4.44 -66.47,-4.05 -66.75,-3.74 -67.04,-3.43 -67.41,-3.22 -67.79,-3.01 -68.20,-2.94 -68.62,-2.86 -69.04,-2.92 -69.46,-2.99 -69.84,-3.18 -70.22,-3.37 -70.52,-3.67 -70.82,-3.98 -71.00,-4.36 -71.19,-4.74 -71.24,-5.16 -71.29,-5.59 -71.21,-6.00 -71.12,-6.42 -70.91,-6.79 -70.70,-7.15 -70.38,-7.44 -70.06,-7.72 -69.67,-7.88 -69.28,-8.04 -68.85,-8.07 -68.43,-8.10 -68.43,-8.10 -68.43,-8.10 -59.15,-8.24 -49.87,-8.37 -37.69,-7.75 -25.51,-7.12 -18.73,-7.23 -11.95,-7.33 -7.35,-7.29 -2.75,-7.24 -0.79,-4.79 1.17,-2.34 1.43,-2.17 1.70,-1.99 1.91,-1.76 2.13,-1.53 2.28,-1.25 2.43,-0.97 2.51,-0.67 2.60,-0.36 2.60,-0.05 2.61,0.26 2.54,0.57 2.47,0.88 2.33,1.16 2.19,1.44 1.98,1.69 1.78,1.93 1.52,2.11 1.26,2.30 0.97,2.41 0.67,2.53 0.36,2.58 0.05,2.62 -0.26,2.59 -0.57,2.56 -0.87,2.45 -1.17,2.34 -1.17,2.34 L -1.17,2.34 Z"></path></g><g transform="translate(1191.1564345556935 122.62189259717161) rotate(0 10.98750171679717 30.90234857849191)" stroke="none"><path fill="#d3d3d3" d="M -0.33,2.69 Q -0.33,2.69 -3.58,3.09 -6.83,3.50 -10.17,4.83 -13.52,6.17 -15.42,9.55 -17.33,12.93 -18.05,19.18 -18.77,25.44 -19.00,29.59 -19.23,33.73 -19.32,37.47 -19.41,41.20 -19.01,44.88 -18.61,48.56 -17.78,51.23 -16.94,53.91 -13.88,55.14 -10.82,56.38 -6.80,57.15 -2.78,57.93 2.31,58.28 7.40,58.64 14.70,57.67 22.00,56.69 27.01,54.48 32.02,52.26 34.91,49.77 37.80,47.28 38.67,45.08 39.53,42.89 37.43,38.86 35.33,34.83 31.78,30.85 28.23,26.87 23.11,23.23 18.00,19.59 13.82,16.42 9.65,13.24 9.32,12.97 9.00,12.70 8.77,12.34 8.55,11.98 8.46,11.56 8.36,11.15 8.40,10.72 8.45,10.30 8.62,9.91 8.80,9.53 9.09,9.22 9.37,8.91 9.75,8.70 10.12,8.50 10.54,8.43 10.96,8.36 11.38,8.42 11.80,8.49 12.18,8.68 12.55,8.88 12.85,9.18 13.14,9.49 13.33,9.87 13.51,10.26 13.56,10.68 13.61,11.10 13.52,11.52 13.43,11.93 13.21,12.30 13.00,12.67 12.68,12.94 12.36,13.22 11.96,13.38 11.57,13.54 11.14,13.57 10.72,13.60 10.31,13.49 9.90,13.38 9.55,13.14 9.19,12.90 8.93,12.57 8.67,12.23 8.53,11.83 8.39,11.43 8.39,11.00 8.39,10.58 8.52,10.18 8.65,9.77 8.91,9.43 9.16,9.09 9.51,8.85 9.86,8.61 10.27,8.49 10.68,8.37 11.10,8.39 11.53,8.41 11.92,8.57 12.32,8.72 12.32,8.72 12.32,8.72 17.11,10.84 21.91,12.96 28.92,16.48 35.94,19.99 40.51,25.43 45.07,30.86 47.20,37.82 49.32,44.79 47.12,49.88 44.91,54.97 40.59,58.48 36.27,61.98 29.87,64.59 23.48,67.19 15.09,68.27 6.70,69.34 0.91,68.94 -4.88,68.55 -9.76,67.55 -14.65,66.55 -18.64,64.74 -22.63,62.93 -24.83,60.09 -27.02,57.26 -28.06,53.39 -29.10,49.51 -29.40,45.21 -29.70,40.91 -29.57,37.02 -29.45,33.13 -29.17,28.63 -28.89,24.12 -28.22,19.37 -27.55,14.61 -26.77,11.49 -25.99,8.36 -24.53,5.91 -23.06,3.46 -20.65,0.87 -18.25,-1.72 -15.09,-3.23 -11.93,-4.75 -8.86,-4.91 -5.80,-5.08 -2.73,-3.88 0.33,-2.69 0.65,-2.61 0.97,-2.53 1.25,-2.37 1.54,-2.22 1.79,-2.00 2.03,-1.79 2.22,-1.52 2.40,-1.25 2.51,-0.94 2.63,-0.63 2.67,-0.31 2.71,0.00 2.67,0.33 2.62,0.65 2.51,0.96 2.39,1.26 2.20,1.53 2.02,1.80 1.77,2.02 1.53,2.23 1.24,2.38 0.95,2.53 0.63,2.61 0.31,2.69 -0.00,2.69 -0.33,2.69 -0.33,2.69 L -0.33,2.69 Z"></path></g></svg>