<?xml version="1.0" standalone="no"?>
<!DOCTYPE svg PUBLIC "-//W3C//DTD SVG 1.1//EN" "http://www.w3.org/Graphics/SVG/1.1/DTD/svg11.dtd">
<svg version="1.1" xmlns="http://www.w3.org/2000/svg" viewBox="0 0 618.8188435654442 264.47191319873673" width="618.8188435654442" height="264.47191319873673"><!-- svg-source:excalidraw --><metadata></metadata><defs><style class="style-fonts">
      </style></defs><g transform="translate(231.1234720505422 33.34844114819498) rotate(0 -109.18829831067137 19.22812800439442)" stroke="none"><path fill="#d3d3d3" d="M -2.41,1.03 Q -2.41,1.03 -4.87,-0.86 -7.34,-2.76 -11.30,-2.90 -15.27,-3.04 -19.41,-1.58 -23.55,-0.12 -31.47,3.97 -39.40,8.07 -48.05,12.63 -56.71,17.19 -67.55,22.73 -78.38,28.27 -90.96,34.24 -103.53,40.20 -116.34,44.47 -129.15,48.75 -142.44,51.05 -155.73,53.35 -164.12,54.30 -172.51,55.25 -179.55,55.26 -186.59,55.27 -192.43,54.86 -198.26,54.45 -203.88,53.65 -209.50,52.85 -212.95,52.09 -216.40,51.33 -218.61,48.84 -220.82,46.34 -221.17,46.11 -221.53,45.87 -221.79,45.54 -222.05,45.20 -222.19,44.80 -222.33,44.40 -222.34,43.98 -222.34,43.55 -222.21,43.15 -222.08,42.74 -221.83,42.40 -221.57,42.06 -221.22,41.82 -220.88,41.57 -220.47,41.46 -220.06,41.34 -219.64,41.36 -219.21,41.37 -218.81,41.53 -218.42,41.68 -218.09,41.95 -217.76,42.22 -217.54,42.58 -217.32,42.94 -217.22,43.36 -217.12,43.77 -217.17,44.20 -217.21,44.62 -217.38,45.01 -217.55,45.39 -217.84,45.71 -218.13,46.02 -218.50,46.22 -218.88,46.42 -219.30,46.50 -219.71,46.57 -220.13,46.51 -220.55,46.44 -220.93,46.25 -221.31,46.05 -221.61,45.75 -221.90,45.44 -222.08,45.06 -222.27,44.68 -222.32,44.26 -222.37,43.83 -222.28,43.42 -222.20,43.00 -221.98,42.63 -221.77,42.27 -221.45,41.99 -221.13,41.71 -220.73,41.55 -220.34,41.39 -219.92,41.36 -219.49,41.33 -219.08,41.44 -218.67,41.55 -218.67,41.55 -218.67,41.55 -217.03,40.78 -215.38,40.02 -211.76,39.74 -208.14,39.46 -202.69,39.79 -197.24,40.12 -191.90,40.50 -186.57,40.89 -180.32,40.92 -174.08,40.95 -166.08,40.09 -158.08,39.24 -145.80,37.28 -133.53,35.32 -121.50,31.44 -109.47,27.55 -97.05,21.74 -84.63,15.94 -73.81,10.51 -62.98,5.09 -54.13,0.57 -45.28,-3.93 -36.18,-8.18 -27.07,-12.43 -20.85,-13.90 -14.64,-15.37 -9.54,-14.61 -4.44,-13.84 -0.92,-11.06 2.60,-8.29 2.51,-4.66 2.41,-1.03 2.50,-0.73 2.59,-0.42 2.60,-0.11 2.61,0.20 2.55,0.51 2.49,0.82 2.35,1.11 2.22,1.39 2.02,1.64 1.82,1.89 1.57,2.08 1.31,2.27 1.02,2.39 0.73,2.52 0.42,2.57 0.11,2.62 -0.20,2.59 -0.52,2.57 -0.82,2.47 -1.12,2.37 -1.38,2.20 -1.65,2.03 -1.87,1.81 -2.09,1.58 -2.25,1.30 -2.41,1.03 -2.41,1.03 L -2.41,1.03 Z"></path></g><g transform="translate(125.36876802636971 56.69688229638814) rotate(0 0 98.8875154511743)" stroke="none"><path fill="#d3d3d3" d="M 1.85,-1.85 Q 1.85,-1.85 5.20,-0.44 8.54,0.97 10.46,3.55 12.38,6.14 13.44,9.46 14.51,12.77 15.28,15.85 16.05,18.93 17.89,23.27 19.73,27.62 22.04,32.15 24.34,36.68 27.63,42.01 30.92,47.34 35.45,53.88 39.97,60.42 46.00,70.10 52.02,79.79 59.14,96.56 66.26,113.32 69.75,126.23 73.24,139.14 73.96,148.75 74.67,158.35 71.54,167.12 68.41,175.89 52.60,184.63 36.78,193.38 19.14,195.23 1.49,197.08 -13.97,194.08 -29.45,191.09 -41.03,185.95 -52.61,180.81 -59.10,175.27 -65.59,169.74 -68.62,162.86 -71.64,155.98 -71.47,150.32 -71.29,144.65 -71.29,141.11 -71.28,137.57 -71.25,137.15 -71.22,136.73 -71.06,136.34 -70.89,135.94 -70.61,135.62 -70.33,135.31 -69.96,135.09 -69.59,134.88 -69.18,134.80 -68.76,134.71 -68.34,134.77 -67.92,134.82 -67.54,135.01 -67.15,135.19 -66.85,135.49 -66.55,135.79 -66.35,136.17 -66.16,136.55 -66.10,136.97 -66.04,137.39 -66.12,137.81 -66.19,138.22 -66.40,138.59 -66.61,138.97 -66.92,139.25 -67.23,139.54 -67.62,139.71 -68.01,139.88 -68.43,139.92 -68.86,139.96 -69.27,139.86 -69.68,139.76 -70.04,139.53 -70.40,139.31 -70.67,138.98 -70.94,138.65 -71.09,138.25 -71.24,137.86 -71.26,137.43 -71.27,137.01 -71.15,136.60 -71.03,136.19 -70.78,135.84 -70.54,135.50 -70.20,135.25 -69.85,135.00 -69.45,134.87 -69.04,134.74 -68.62,134.75 -68.19,134.76 -67.79,134.90 -67.39,135.04 -67.06,135.30 -66.73,135.57 -66.49,135.92 -66.26,136.28 -66.16,136.69 -66.05,137.10 -66.05,137.10 -66.05,137.10 -65.41,140.58 -64.78,144.06 -63.75,147.89 -62.71,151.71 -60.01,156.02 -57.30,160.33 -52.16,164.40 -47.03,168.46 -36.82,172.90 -26.61,177.35 -13.12,180.17 0.36,182.99 15.56,181.81 30.77,180.62 43.93,174.80 57.09,168.98 58.97,163.91 60.84,158.83 60.33,150.74 59.81,142.65 56.69,130.64 53.57,118.63 46.98,102.78 40.40,86.93 34.62,77.48 28.84,68.02 24.18,61.11 19.52,54.20 16.06,48.32 12.60,42.45 10.17,37.33 7.74,32.21 5.87,26.86 4.00,21.52 3.47,18.51 2.95,15.51 1.94,12.01 0.93,8.50 -0.46,5.18 -1.85,1.85 -2.05,1.60 -2.24,1.35 -2.37,1.07 -2.50,0.78 -2.56,0.46 -2.62,0.15 -2.60,-0.15 -2.58,-0.47 -2.48,-0.77 -2.39,-1.07 -2.23,-1.34 -2.06,-1.61 -1.84,-1.84 -1.61,-2.06 -1.34,-2.23 -1.07,-2.39 -0.77,-2.48 -0.47,-2.58 -0.15,-2.60 0.15,-2.62 0.47,-2.56 0.78,-2.50 1.07,-2.37 1.35,-2.24 1.60,-2.05 1.85,-1.85 1.85,-1.85 L 1.85,-1.85 Z"></path></g><g transform="translate(184.42658975415452 170.69221260815902) rotate(0 53.564070869386114 -10.987501716797851)" stroke="none"><path fill="#d3d3d3" d="M 1.08,-2.39 Q 1.08,-2.39 5.87,-1.61 10.66,-0.83 14.68,-1.29 18.71,-1.76 22.84,-2.95 26.96,-4.13 30.45,-6.69 33.95,-9.25 36.84,-12.40 39.73,-15.54 41.53,-18.80 43.33,-22.06 43.96,-25.50 44.58,-28.95 43.93,-31.84 43.28,-34.73 41.07,-35.95 38.86,-37.18 36.96,-35.11 35.07,-33.05 33.58,-30.15 32.09,-27.25 31.48,-23.52 30.86,-19.80 32.00,-16.26 33.14,-12.72 35.29,-9.12 37.44,-5.51 41.04,-2.43 44.65,0.65 51.71,4.20 58.77,7.74 65.58,10.05 72.39,12.36 77.96,13.74 83.53,15.11 87.29,15.66 91.04,16.22 89.32,19.12 87.60,22.03 85.72,17.44 83.85,12.86 81.38,7.51 78.91,2.17 76.95,-3.54 74.99,-9.25 74.07,-16.16 73.15,-23.06 74.23,-28.55 75.31,-34.04 79.00,-37.97 82.68,-41.90 87.49,-43.43 92.31,-44.95 97.24,-43.64 102.18,-42.33 104.89,-41.00 107.60,-39.66 108.00,-39.52 108.40,-39.37 108.73,-39.11 109.07,-38.84 109.30,-38.49 109.53,-38.13 109.63,-37.72 109.74,-37.31 109.71,-36.88 109.68,-36.46 109.51,-36.07 109.35,-35.68 109.06,-35.36 108.78,-35.04 108.41,-34.83 108.04,-34.62 107.63,-34.54 107.21,-34.45 106.79,-34.51 106.37,-34.56 105.99,-34.75 105.60,-34.93 105.30,-35.23 105.00,-35.53 104.81,-35.91 104.62,-36.29 104.56,-36.71 104.50,-37.13 104.57,-37.55 104.65,-37.97 104.86,-38.34 105.07,-38.71 105.38,-39.00 105.69,-39.28 106.08,-39.45 106.47,-39.62 106.90,-39.66 107.32,-39.70 107.73,-39.60 108.15,-39.50 108.51,-39.27 108.87,-39.04 109.13,-38.71 109.40,-38.38 109.55,-37.99 109.70,-37.59 109.71,-37.16 109.73,-36.74 109.61,-36.33 109.48,-35.93 109.24,-35.58 108.99,-35.23 108.65,-34.98 108.30,-34.73 107.90,-34.60 107.49,-34.48 107.07,-34.49 106.64,-34.50 106.64,-34.50 106.64,-34.50 103.64,-34.22 100.63,-33.94 97.82,-34.07 95.02,-34.20 92.77,-33.52 90.52,-32.84 88.74,-31.59 86.96,-30.35 86.33,-27.37 85.70,-24.40 86.33,-18.82 86.96,-13.24 88.64,-8.16 90.33,-3.09 92.72,2.08 95.11,7.26 97.39,12.48 99.68,17.69 99.63,20.00 99.58,22.30 94.40,25.47 89.23,28.64 84.86,27.96 80.50,27.28 74.40,25.74 68.31,24.21 60.66,21.54 53.02,18.86 44.66,14.40 36.30,9.94 31.49,5.33 26.68,0.73 23.89,-4.48 21.11,-9.69 19.93,-15.74 18.75,-21.79 20.12,-27.62 21.48,-33.45 24.66,-38.17 27.83,-42.90 33.18,-45.76 38.53,-48.62 43.60,-47.28 48.67,-45.95 51.91,-41.90 55.15,-37.86 56.04,-32.25 56.94,-26.65 55.64,-21.26 54.34,-15.87 51.62,-11.34 48.89,-6.81 44.84,-2.78 40.79,1.24 35.39,4.41 29.99,7.57 24.33,8.71 18.68,9.85 12.69,9.29 6.71,8.73 2.81,5.56 -1.08,2.39 -1.35,2.22 -1.62,2.06 -1.85,1.83 -2.07,1.61 -2.23,1.34 -2.39,1.06 -2.49,0.76 -2.58,0.46 -2.60,0.14 -2.62,-0.16 -2.56,-0.47 -2.50,-0.79 -2.37,-1.07 -2.24,-1.36 -2.04,-1.61 -1.85,-1.86 -1.60,-2.05 -1.35,-2.25 -1.06,-2.38 -0.77,-2.51 -0.46,-2.56 -0.14,-2.62 0.16,-2.60 0.48,-2.58 0.78,-2.48 1.08,-2.39 1.08,-2.39 L 1.08,-2.39 Z"></path></g><g transform="translate(305.28910863892315 139.10314517236657) rotate(0 98.8875154511743 18.541409147095692)" stroke="none"><path fill="#d3d3d3" d="M 2.58,-0.48 Q 2.58,-0.48 4.66,5.66 6.75,11.81 9.74,23.83 12.72,35.85 13.45,40.61 14.19,45.37 14.24,46.05 14.30,46.73 14.19,47.41 14.08,48.08 13.81,48.71 13.54,49.34 13.13,49.88 12.72,50.43 12.19,50.86 11.66,51.29 11.04,51.58 10.43,51.88 9.76,52.01 9.09,52.15 8.41,52.12 7.72,52.09 7.07,51.90 6.41,51.71 5.82,51.37 5.23,51.03 4.74,50.56 4.25,50.08 3.88,49.51 3.52,48.93 3.30,48.28 3.08,47.63 2.20,44.77 1.31,41.90 0.09,36.45 -1.13,31.00 -1.69,24.83 -2.25,18.66 -0.48,12.31 1.28,5.96 11.12,4.31 20.95,2.67 29.80,14.98 38.64,27.30 42.05,34.14 45.46,40.99 45.26,40.01 45.07,39.03 45.36,39.67 45.65,40.32 45.78,41.01 45.91,41.70 45.86,42.40 45.82,43.10 45.62,43.78 45.41,44.45 45.04,45.05 44.68,45.66 44.18,46.15 43.69,46.65 43.09,47.02 42.48,47.38 41.81,47.59 41.14,47.80 40.44,47.85 39.74,47.89 39.04,47.77 38.35,47.64 37.71,47.35 37.07,47.06 36.51,46.63 35.96,46.20 35.52,45.65 35.09,45.09 33.91,41.37 32.74,37.64 31.91,32.02 31.08,26.41 31.16,20.16 31.24,13.92 32.74,8.21 34.25,2.50 39.24,-2.08 44.23,-6.67 49.69,-6.71 55.15,-6.76 59.60,-2.87 64.04,1.01 67.31,6.44 70.57,11.87 73.56,18.59 76.56,25.30 78.61,30.50 80.66,35.69 82.49,38.58 84.33,41.47 86.05,43.21 87.77,44.95 90.15,45.53 92.53,46.10 95.63,44.63 98.74,43.16 100.44,41.03 102.15,38.91 103.06,36.16 103.98,33.41 104.40,30.13 104.83,26.85 105.06,24.55 105.29,22.25 108.86,22.75 112.43,23.24 112.58,26.23 112.72,29.22 113.77,31.21 114.83,33.20 117.06,36.25 119.29,39.30 121.46,41.08 123.62,42.86 125.70,43.83 127.79,44.79 129.93,43.60 132.08,42.40 133.08,39.22 134.07,36.03 134.19,31.83 134.32,27.63 134.43,23.24 134.54,18.84 134.15,16.59 133.76,14.34 133.55,13.97 133.34,13.60 133.34,12.92 133.33,12.24 133.49,11.58 133.65,10.92 133.96,10.32 134.27,9.71 134.72,9.20 135.16,8.69 135.72,8.30 136.28,7.91 136.91,7.66 137.54,7.42 138.22,7.33 138.89,7.24 139.56,7.32 140.24,7.40 140.88,7.63 141.51,7.87 142.08,8.25 142.64,8.63 143.09,9.14 143.55,9.65 143.87,10.24 144.19,10.84 144.35,11.50 144.52,12.16 145.74,15.54 146.96,18.92 148.26,22.89 149.56,26.86 150.78,29.83 152.00,32.80 153.97,36.83 155.94,40.87 157.07,41.97 158.19,43.07 158.55,43.70 158.92,44.32 159.13,45.02 159.34,45.72 159.37,46.44 159.41,47.16 159.27,47.88 159.13,48.59 158.82,49.25 158.52,49.91 158.06,50.47 157.61,51.04 157.03,51.48 156.45,51.92 155.79,52.21 155.12,52.50 154.41,52.62 153.69,52.74 152.97,52.69 152.24,52.64 151.55,52.41 150.86,52.19 150.25,51.81 149.63,51.42 149.12,50.90 148.62,50.38 147.58,45.60 146.54,40.81 146.13,38.15 145.71,35.49 144.77,31.28 143.84,27.07 142.65,22.07 141.47,17.08 140.89,10.93 140.32,4.78 141.37,-1.63 142.42,-8.04 144.99,-12.38 147.56,-16.72 151.63,-19.03 155.69,-21.34 160.89,-21.22 166.10,-21.10 171.82,-16.83 177.54,-12.56 181.18,-6.27 184.83,0.00 187.42,6.17 190.02,12.34 191.92,17.77 193.82,23.21 194.94,26.57 196.06,29.94 196.75,30.83 197.44,31.73 197.86,31.74 198.29,31.76 198.68,31.91 199.08,32.05 199.41,32.32 199.74,32.59 199.97,32.95 200.19,33.31 200.29,33.73 200.39,34.14 200.35,34.56 200.31,34.99 200.14,35.37 199.97,35.76 199.69,36.08 199.40,36.39 199.03,36.60 198.66,36.80 198.24,36.88 197.82,36.96 197.40,36.90 196.98,36.84 196.60,36.64 196.22,36.45 195.92,36.15 195.62,35.85 195.44,35.46 195.25,35.08 195.20,34.66 195.15,34.24 195.23,33.82 195.31,33.41 195.52,33.04 195.74,32.67 196.05,32.39 196.37,32.11 196.77,31.94 197.16,31.78 197.58,31.75 198.00,31.71 198.42,31.82 198.83,31.93 199.18,32.16 199.54,32.39 199.80,32.72 200.07,33.06 200.21,33.46 200.35,33.86 200.36,34.28 200.37,34.71 200.24,35.11 200.11,35.52 199.86,35.86 199.61,36.20 199.26,36.45 198.92,36.69 198.51,36.82 198.10,36.94 198.10,36.94 198.10,36.94 194.74,37.85 191.38,38.76 188.20,36.43 185.02,34.10 183.79,30.62 182.56,27.13 180.79,22.03 179.02,16.93 176.69,11.32 174.36,5.71 172.00,1.00 169.63,-3.71 166.80,-6.73 163.96,-9.75 160.45,-9.69 156.94,-9.64 155.53,-7.65 154.12,-5.67 153.24,-0.93 152.35,3.80 152.80,9.04 153.26,14.28 154.48,19.36 155.71,24.44 156.73,29.06 157.75,33.68 157.97,38.38 158.19,43.07 158.55,43.70 158.92,44.32 159.13,45.02 159.34,45.71 159.37,46.44 159.41,47.16 159.27,47.88 159.13,48.59 158.82,49.25 158.52,49.91 158.06,50.47 157.61,51.04 157.03,51.48 156.45,51.92 155.79,52.21 155.12,52.50 154.41,52.62 153.69,52.74 152.97,52.69 152.24,52.64 151.55,52.41 150.86,52.19 150.25,51.81 149.63,51.42 149.12,50.90 148.62,50.38 149.57,50.94 150.52,51.51 148.39,49.76 146.27,48.02 145.11,45.27 143.95,42.53 142.39,39.93 140.83,37.32 139.46,33.85 138.10,30.38 137.02,26.64 135.95,22.89 134.64,18.24 133.34,13.60 133.34,12.92 133.33,12.24 133.49,11.58 133.65,10.92 133.96,10.32 134.27,9.71 134.72,9.20 135.16,8.69 135.72,8.30 136.27,7.91 136.91,7.66 137.54,7.42 138.22,7.33 138.89,7.24 139.56,7.32 140.24,7.40 140.88,7.63 141.51,7.87 142.07,8.25 142.64,8.63 143.09,9.14 143.54,9.64 143.86,10.24 144.18,10.84 144.35,11.50 144.52,12.16 144.61,12.50 144.69,12.83 144.99,15.97 145.29,19.10 145.17,23.66 145.06,28.21 144.65,33.92 144.24,39.63 142.12,44.90 139.99,50.18 135.76,53.35 131.54,56.53 126.98,56.01 122.42,55.49 119.10,53.68 115.78,51.88 112.67,49.00 109.55,46.13 106.79,41.94 104.03,37.75 102.63,33.85 101.23,29.96 101.37,26.50 101.50,23.05 102.49,20.87 103.48,18.69 105.12,17.26 106.77,15.83 110.09,15.82 113.41,15.81 114.94,19.60 116.47,23.38 116.21,25.95 115.95,28.52 115.21,32.96 114.48,37.41 112.67,41.70 110.87,45.99 108.02,49.27 105.17,52.55 101.52,54.75 97.86,56.94 94.84,57.35 91.82,57.76 87.79,57.06 83.75,56.37 81.49,54.62 79.23,52.87 76.85,50.18 74.47,47.49 72.26,43.67 70.04,39.85 68.13,34.83 66.21,29.81 63.59,23.65 60.97,17.48 58.45,13.05 55.94,8.61 52.61,5.55 49.28,2.49 46.92,4.38 44.56,6.26 43.63,10.20 42.71,14.13 42.64,19.44 42.58,24.75 43.28,29.59 43.97,34.44 44.52,36.73 45.07,39.03 45.36,39.67 45.65,40.32 45.78,41.01 45.91,41.70 45.86,42.40 45.82,43.10 45.62,43.78 45.41,44.45 45.04,45.05 44.68,45.65 44.19,46.15 43.69,46.65 43.09,47.02 42.49,47.38 41.81,47.59 41.14,47.80 40.44,47.85 39.74,47.89 39.05,47.77 38.35,47.64 37.71,47.35 37.07,47.07 36.51,46.63 35.96,46.20 35.52,45.65 35.09,45.09 35.24,43.43 35.39,41.76 32.17,37.70 28.96,33.64 22.22,22.14 15.48,10.64 10.94,12.43 6.41,14.22 7.81,15.95 9.22,17.68 9.66,23.10 10.10,28.51 11.22,33.60 12.34,38.69 13.26,42.03 14.19,45.37 14.24,46.05 14.30,46.73 14.19,47.41 14.08,48.08 13.81,48.71 13.54,49.34 13.13,49.88 12.72,50.43 12.19,50.86 11.66,51.29 11.05,51.58 10.43,51.88 9.76,52.01 9.09,52.15 8.41,52.12 7.73,52.09 7.07,51.90 6.41,51.71 5.82,51.37 5.23,51.03 4.74,50.56 4.25,50.08 3.88,49.51 3.52,48.93 3.30,48.28 3.08,47.63 2.50,42.84 1.92,38.05 -0.04,25.75 -2.01,13.45 -2.29,6.97 -2.58,0.48 -2.60,0.16 -2.62,-0.14 -2.56,-0.45 -2.51,-0.77 -2.38,-1.06 -2.25,-1.34 -2.05,-1.59 -1.86,-1.84 -1.61,-2.04 -1.36,-2.24 -1.07,-2.37 -0.79,-2.50 -0.48,-2.56 -0.16,-2.62 0.14,-2.60 0.46,-2.58 0.76,-2.49 1.06,-2.39 1.33,-2.23 1.61,-2.07 1.83,-1.85 2.06,-1.62 2.22,-1.35 2.39,-1.08 2.48,-0.78 2.58,-0.48 2.58,-0.48 L 2.58,-0.48 Z"></path></g><g transform="translate(529.1594561186648 137.7297074577673) rotate(0 30.215629721192272 -37.082818294190474)" stroke="none"><path fill="#d3d3d3" d="M -2.52,-0.72 Q -2.52,-0.72 -2.49,-3.67 -2.45,-6.62 -5.78,-3.59 -9.11,-0.56 -10.33,3.40 -11.55,7.36 -11.65,11.69 -11.74,16.03 -10.74,19.73 -9.74,23.44 -8.10,25.61 -6.46,27.79 -3.74,25.70 -1.02,23.61 -0.47,19.73 0.06,15.85 0.01,9.14 -0.02,2.43 -0.38,-1.98 -0.74,-6.39 -0.88,-8.76 -1.02,-11.13 -1.00,-11.79 -0.97,-12.44 -0.80,-13.07 -0.62,-13.70 -0.30,-14.26 0.02,-14.83 0.47,-15.30 0.92,-15.78 1.47,-16.13 2.02,-16.48 2.63,-16.69 3.25,-16.90 3.90,-16.96 4.55,-17.02 5.20,-16.92 5.84,-16.82 6.45,-16.56 7.05,-16.31 7.57,-15.92 8.10,-15.53 8.51,-15.03 8.93,-14.53 9.21,-13.94 9.50,-13.35 9.63,-12.71 9.77,-12.07 8.87,-10.05 7.98,-8.03 9.88,-2.57 11.78,2.87 13.90,8.94 16.02,15.01 18.29,18.68 20.56,22.34 22.56,24.19 24.57,26.03 26.93,25.01 29.29,23.99 30.69,19.32 32.10,14.65 33.34,4.22 34.59,-6.20 34.83,-20.49 35.07,-34.77 33.63,-49.35 32.18,-63.92 28.84,-78.18 25.50,-92.44 23.29,-100.52 21.09,-108.60 19.17,-112.77 17.25,-116.95 14.92,-113.85 12.58,-110.75 12.42,-102.19 12.26,-93.63 14.03,-80.20 15.81,-66.76 20.05,-52.62 24.29,-38.48 31.93,-22.04 39.57,-5.59 45.17,4.96 50.76,15.53 55.39,22.59 60.02,29.65 64.44,34.31 68.86,38.97 72.35,42.07 75.83,45.17 78.48,48.28 81.12,51.38 81.43,51.67 81.74,51.96 81.94,52.33 82.14,52.71 82.21,53.13 82.28,53.54 82.21,53.96 82.15,54.38 81.95,54.76 81.75,55.14 81.45,55.43 81.14,55.72 80.76,55.91 80.37,56.09 79.95,56.13 79.53,56.18 79.11,56.09 78.70,56.00 78.33,55.79 77.97,55.57 77.69,55.25 77.41,54.93 77.25,54.53 77.09,54.14 77.07,53.71 77.04,53.29 77.15,52.88 77.26,52.47 77.50,52.12 77.74,51.76 78.07,51.50 78.41,51.25 78.81,51.11 79.22,50.97 79.64,50.97 80.07,50.96 80.47,51.10 80.87,51.23 81.21,51.49 81.55,51.74 81.79,52.09 82.03,52.44 82.15,52.85 82.26,53.26 82.24,53.69 82.22,54.11 82.07,54.51 81.91,54.90 81.64,55.23 81.37,55.55 81.00,55.77 80.64,55.99 80.23,56.09 79.81,56.18 79.39,56.14 78.97,56.09 78.58,55.92 78.19,55.74 78.19,55.74 78.19,55.74 74.32,54.48 70.45,53.22 65.12,50.42 59.79,47.61 54.62,42.10 49.45,36.59 44.53,29.01 39.61,21.42 33.88,10.53 28.15,-0.35 20.28,-17.66 12.42,-34.97 8.05,-50.08 3.68,-65.20 1.92,-79.70 0.16,-94.21 0.98,-104.96 1.79,-115.71 5.05,-120.98 8.30,-126.24 12.87,-127.63 17.44,-129.02 22.47,-125.49 27.50,-121.96 29.85,-116.81 32.20,-111.65 34.46,-103.35 36.73,-95.05 40.18,-80.06 43.63,-65.07 45.17,-49.84 46.71,-34.62 46.53,-19.66 46.35,-4.71 44.76,7.19 43.16,19.10 39.74,26.12 36.31,33.14 31.58,35.35 26.84,37.57 21.96,36.28 17.08,34.99 13.82,31.66 10.56,28.33 7.87,23.54 5.18,18.75 3.06,12.36 0.94,5.97 -0.37,0.95 -1.68,-4.05 -1.35,-7.59 -1.02,-11.13 -1.00,-11.78 -0.97,-12.44 -0.80,-13.07 -0.62,-13.69 -0.30,-14.26 0.02,-14.83 0.47,-15.30 0.92,-15.78 1.47,-16.13 2.02,-16.48 2.63,-16.69 3.25,-16.90 3.90,-16.96 4.55,-17.02 5.20,-16.92 5.84,-16.82 6.45,-16.56 7.05,-16.31 7.57,-15.92 8.10,-15.53 8.51,-15.03 8.93,-14.53 9.21,-13.94 9.50,-13.35 9.63,-12.71 9.77,-12.07 9.97,-9.71 10.18,-7.34 10.62,-2.47 11.07,2.39 11.07,10.10 11.07,17.80 9.85,23.68 8.63,29.57 5.33,33.72 2.04,37.88 -2.93,38.77 -7.90,39.65 -11.96,37.03 -16.03,34.41 -18.46,30.37 -20.90,26.32 -22.04,20.95 -23.19,15.58 -22.77,9.71 -22.34,3.84 -20.48,-1.32 -18.62,-6.50 -14.66,-11.55 -10.70,-16.60 -6.71,-17.55 -2.72,-18.49 -0.03,-17.46 2.66,-16.43 4.37,-13.54 6.08,-10.64 5.85,-7.53 5.61,-4.43 4.07,-1.85 2.52,0.72 2.40,1.01 2.27,1.30 2.09,1.55 1.90,1.81 1.65,2.01 1.41,2.21 1.12,2.35 0.84,2.48 0.53,2.55 0.22,2.61 -0.09,2.60 -0.41,2.59 -0.71,2.50 -1.02,2.42 -1.29,2.26 -1.57,2.10 -1.79,1.88 -2.02,1.66 -2.19,1.40 -2.36,1.13 -2.47,0.83 -2.57,0.53 -2.59,0.21 -2.62,-0.09 -2.57,-0.40 -2.52,-0.72 -2.52,-0.72 L -2.52,-0.72 Z"></path></g><g transform="translate(402.8031863754977 91.03282516137915) rotate(0 -4.8070320010988326 5.493750858399835)" stroke="none"><path fill="#d3d3d3" d="M -1.35,2.25 Q -1.35,2.25 -3.47,1.91 -5.59,1.58 -3.79,4.25 -2.00,6.92 0.09,7.79 2.18,8.67 3.23,9.89 4.28,11.11 4.70,11.20 5.11,11.30 5.47,11.52 5.83,11.74 6.11,12.07 6.38,12.40 6.53,12.79 6.69,13.19 6.70,13.61 6.72,14.04 6.61,14.45 6.49,14.86 6.25,15.20 6.00,15.55 5.66,15.81 5.32,16.06 4.92,16.19 4.52,16.33 4.09,16.32 3.67,16.32 3.26,16.18 2.86,16.04 2.53,15.78 2.19,15.52 1.96,15.16 1.72,14.81 1.61,14.40 1.50,13.99 1.53,13.56 1.56,13.14 1.72,12.75 1.88,12.35 2.16,12.03 2.43,11.71 2.80,11.50 3.17,11.28 3.58,11.19 4.00,11.11 4.42,11.16 4.84,11.21 5.23,11.39 5.61,11.57 5.92,11.87 6.22,12.16 6.42,12.54 6.61,12.91 6.68,13.34 6.74,13.76 6.67,14.17 6.60,14.59 6.39,14.97 6.19,15.34 5.88,15.63 5.57,15.92 5.18,16.09 4.79,16.27 4.37,16.31 3.95,16.35 3.95,16.35 3.95,16.35 1.14,17.33 -1.65,18.30 -4.78,16.98 -7.90,15.67 -11.05,13.14 -14.19,10.62 -15.47,7.20 -16.74,3.79 -15.59,0.52 -14.45,-2.74 -11.58,-4.47 -8.72,-6.19 -5.51,-6.26 -2.30,-6.32 -0.47,-4.28 1.35,-2.25 1.60,-2.05 1.85,-1.86 2.04,-1.61 2.24,-1.36 2.37,-1.07 2.50,-0.78 2.56,-0.47 2.62,-0.16 2.60,0.14 2.58,0.46 2.49,0.76 2.39,1.07 2.23,1.34 2.07,1.61 1.84,1.83 1.62,2.06 1.35,2.22 1.08,2.39 0.78,2.48 0.48,2.58 0.16,2.60 -0.15,2.62 -0.46,2.56 -0.77,2.51 -1.06,2.38 -1.35,2.25 -1.35,2.25 L -1.35,2.25 Z"></path></g></svg>